<svg width="319" height="319" viewBox="0 0 319 319" fill="none" xmlns="http://www.w3.org/2000/svg">
<g filter="url(#filter0_d_2030_961)">
<path d="M235.381 159.19C235.381 201.269 201.269 235.381 159.19 235.381C117.112 235.381 83 201.269 83 159.19C83 117.112 117.112 83 159.19 83C201.269 83 235.381 117.112 235.381 159.19Z" fill="#2456E5"/>
</g>
<g filter="url(#filter1_d_2030_961)">
<path fill-rule="evenodd" clip-rule="evenodd" d="M245.54 159.19C245.54 206.88 206.88 245.54 159.19 245.54C111.501 245.54 72.8413 206.88 72.8413 159.19C72.8413 111.501 111.501 72.8412 159.19 72.8412C206.88 72.8412 245.54 111.501 245.54 159.19ZM159.19 235.381C201.269 235.381 235.381 201.269 235.381 159.19C235.381 117.112 201.269 83 159.19 83C117.112 83 83 117.112 83 159.19C83 201.269 117.112 235.381 159.19 235.381Z" fill="url(#paint0_linear_2030_961)"/>
</g>
<path d="M211.206 140.848V175.44H203.369L190.87 157.266H190.667V175.44H181.276V140.848H189.249L201.545 158.955H201.815V140.848H211.206Z" fill="white"/>
<path d="M176.826 140.848V175.44H167.435V140.848H176.826Z" fill="white"/>
<path d="M136.221 175.44V140.848H151.152C153.719 140.848 155.966 141.355 157.891 142.368C159.817 143.382 161.314 144.806 162.384 146.642C163.454 148.477 163.989 150.622 163.989 153.077C163.989 155.554 163.437 157.699 162.333 159.512C161.241 161.325 159.704 162.721 157.722 163.701C155.752 164.681 153.449 165.171 150.814 165.171H141.896V157.874H148.922C150.026 157.874 150.966 157.682 151.743 157.3C152.531 156.905 153.134 156.348 153.55 155.627C153.978 154.907 154.192 154.057 154.192 153.077C154.192 152.086 153.978 151.242 153.55 150.543C153.134 149.834 152.531 149.293 151.743 148.922C150.966 148.539 150.026 148.348 148.922 148.348H145.612V175.44H136.221Z" fill="white"/>
<path d="M123.19 151.658C123.1 150.532 122.678 149.654 121.923 149.023C121.18 148.393 120.048 148.077 118.528 148.077C117.56 148.077 116.766 148.196 116.147 148.432C115.539 148.657 115.088 148.967 114.795 149.361C114.503 149.755 114.351 150.206 114.339 150.712C114.317 151.129 114.39 151.506 114.559 151.844C114.739 152.171 115.021 152.469 115.403 152.739C115.786 152.998 116.276 153.235 116.873 153.449C117.47 153.663 118.179 153.854 119.001 154.023L121.839 154.631C123.753 155.036 125.391 155.571 126.754 156.235C128.116 156.9 129.231 157.682 130.098 158.583C130.965 159.473 131.601 160.475 132.007 161.59C132.423 162.705 132.637 163.921 132.649 165.238C132.637 167.513 132.069 169.438 130.943 171.015C129.817 172.591 128.206 173.79 126.112 174.612C124.029 175.434 121.523 175.845 118.596 175.845C115.589 175.845 112.966 175.401 110.725 174.511C108.495 173.621 106.761 172.253 105.522 170.407C104.295 168.549 103.676 166.173 103.665 163.279H112.583C112.639 164.337 112.904 165.227 113.377 165.947C113.849 166.668 114.514 167.214 115.37 167.586C116.237 167.957 117.267 168.143 118.461 168.143C119.463 168.143 120.302 168.019 120.977 167.772C121.653 167.524 122.165 167.18 122.514 166.741C122.863 166.302 123.044 165.801 123.055 165.238C123.044 164.709 122.869 164.247 122.531 163.853C122.205 163.448 121.664 163.087 120.91 162.772C120.155 162.446 119.136 162.142 117.853 161.86L114.407 161.117C111.344 160.452 108.929 159.343 107.161 157.789C105.404 156.224 104.532 154.09 104.543 151.388C104.532 149.192 105.117 147.272 106.299 145.628C107.493 143.973 109.143 142.684 111.248 141.76C113.365 140.837 115.792 140.375 118.528 140.375C121.321 140.375 123.736 140.843 125.774 141.777C127.812 142.712 129.383 144.029 130.487 145.73C131.601 147.419 132.164 149.395 132.176 151.658H123.19Z" fill="white"/>
<defs>
<filter id="filter0_d_2030_961" x="10.4377" y="10.4377" width="297.506" height="297.506" filterUnits="userSpaceOnUse" color-interpolation-filters="sRGB">
<feFlood flood-opacity="0" result="BackgroundImageFix"/>
<feColorMatrix in="SourceAlpha" type="matrix" values="0 0 0 0 0 0 0 0 0 0 0 0 0 0 0 0 0 0 127 0" result="hardAlpha"/>
<feOffset/>
<feGaussianBlur stdDeviation="36.2812"/>
<feComposite in2="hardAlpha" operator="out"/>
<feColorMatrix type="matrix" values="0 0 0 0 0.0659701 0 0 0 0 0.0701668 0 0 0 0 0.317773 0 0 0 0.25 0"/>
<feBlend mode="normal" in2="BackgroundImageFix" result="effect1_dropShadow_2030_961"/>
<feBlend mode="normal" in="SourceGraphic" in2="effect1_dropShadow_2030_961" result="shape"/>
</filter>
<filter id="filter1_d_2030_961" x="0.278984" y="0.278923" width="317.823" height="317.823" filterUnits="userSpaceOnUse" color-interpolation-filters="sRGB">
<feFlood flood-opacity="0" result="BackgroundImageFix"/>
<feColorMatrix in="SourceAlpha" type="matrix" values="0 0 0 0 0 0 0 0 0 0 0 0 0 0 0 0 0 0 127 0" result="hardAlpha"/>
<feOffset/>
<feGaussianBlur stdDeviation="36.2812"/>
<feComposite in2="hardAlpha" operator="out"/>
<feColorMatrix type="matrix" values="0 0 0 0 0.0659701 0 0 0 0 0.0701668 0 0 0 0 0.317773 0 0 0 0.25 0"/>
<feBlend mode="normal" in2="BackgroundImageFix" result="effect1_dropShadow_2030_961"/>
<feBlend mode="normal" in="SourceGraphic" in2="effect1_dropShadow_2030_961" result="shape"/>
</filter>
<linearGradient id="paint0_linear_2030_961" x1="138.147" y1="182.41" x2="277.467" y2="4.63267" gradientUnits="userSpaceOnUse">
<stop stop-color="white"/>
<stop offset="1" stop-color="#999999"/>
</linearGradient>
</defs>
</svg>
