<svg width="830" height="829" viewBox="0 0 830 829" fill="none" xmlns="http://www.w3.org/2000/svg">
<path fill-rule="evenodd" clip-rule="evenodd" d="M750.201 171.048C725.271 136.718 694.591 105.658 658.411 79.3682C622.311 53.1482 583.401 33.5982 543.151 20.4982L415.131 414.488L415.128 414.48L415.131 414.478H415.128L287.151 20.5982C246.791 33.6982 207.781 53.2782 171.591 79.5682C135.491 105.788 104.881 136.758 79.9807 170.988L415.117 414.478H0.970715V414.488C0.96072 456.918 7.52071 500.078 21.3407 542.608C35.1307 585.038 55.1207 623.728 79.9807 657.978L415.124 414.483L415.131 414.488L415.139 414.494L287.161 808.378H287.151C327.501 821.498 370.571 828.598 415.301 828.598C459.921 828.598 502.881 821.538 543.151 808.478L415.144 414.498L750.201 657.928C775.151 623.608 795.201 584.838 809.031 542.298C822.821 499.868 829.381 456.818 829.401 414.488H415.141H415.131L750.201 171.048Z" fill="url(#paint0_linear_2030_964)"/>
<path fill-rule="evenodd" clip-rule="evenodd" d="M415.1 0.378174C459.83 0.378174 502.9 7.4782 543.25 20.5982H543.24L415.262 414.482L415.27 414.488L415.26 414.488L1 414.488C1.02 372.158 7.58006 329.108 21.3701 286.678C35.2001 244.138 55.2501 205.368 80.2001 171.048L415.257 414.478L287.25 20.4982C327.52 7.43817 370.48 0.378174 415.1 0.378174ZM829.43 414.488C829.44 372.058 822.88 328.898 809.06 286.368C795.27 243.938 775.28 205.248 750.42 170.998L415.277 414.493L415.27 414.488L80.2001 657.928C105.13 692.258 135.81 723.318 171.99 749.608C208.09 775.828 247 795.378 287.25 808.478L415.27 414.488L415.273 414.496L415.27 414.498H415.273L543.25 808.378C583.61 795.278 622.62 775.698 658.81 749.408C694.91 723.188 725.52 692.218 750.42 657.988L415.284 414.498H829.43V414.488Z" fill="url(#paint1_linear_2030_964)"/>
<path d="M408.516 637.022C408.516 634.303 408.994 631.889 409.951 629.781C410.918 627.684 412.249 626.03 413.943 624.821C415.636 623.622 417.584 623.012 419.784 622.989L419.784 632.321C418.563 632.356 417.589 632.828 416.864 633.738C416.138 634.66 415.775 635.755 415.775 637.022C415.775 638.001 415.982 638.866 416.397 639.614C416.823 640.363 417.422 640.951 418.194 641.377C418.966 641.804 419.865 642.011 420.89 641.999C421.927 642.011 422.826 641.804 423.586 641.377C424.358 640.951 424.952 640.363 425.366 639.614C425.793 638.866 426.006 638.001 426.006 637.022C426.006 636.008 425.758 635.069 425.263 634.205C424.779 633.352 424.105 632.725 423.241 632.321L424.9 623.887L444.394 625.27L444.394 649.051L436.721 649.051L436.721 633.151L428.909 632.46L428.909 632.667C429.981 633.22 430.868 634.176 431.571 635.536C432.285 636.895 432.642 638.474 432.642 640.271C432.642 642.38 432.153 644.258 431.173 645.905C430.194 647.564 428.84 648.872 427.112 649.828C425.395 650.796 423.414 651.274 421.167 651.263C418.701 651.274 416.512 650.687 414.6 649.5C412.698 648.325 411.206 646.671 410.123 644.54C409.052 642.408 408.516 639.902 408.516 637.022ZM408.032 670.822C408.044 667.608 408.787 664.831 410.262 662.492C411.736 660.153 413.862 658.35 416.639 657.083C419.416 655.815 422.745 655.187 426.628 655.199C430.522 655.21 433.829 655.844 436.548 657.1C439.267 658.367 441.335 660.165 442.753 662.492C444.17 664.831 444.878 667.608 444.878 670.822C444.878 674.037 444.164 676.813 442.735 679.152C441.318 681.491 439.25 683.294 436.531 684.562C433.812 685.829 430.511 686.457 426.628 686.446C422.722 686.446 419.381 685.812 416.604 684.544C413.828 683.277 411.702 681.474 410.227 679.135C408.764 676.808 408.032 674.037 408.032 670.822ZM415.844 670.822C415.844 672.481 416.708 673.841 418.436 674.901C420.176 675.972 422.907 676.502 426.628 676.491C429.059 676.491 431.047 676.249 432.591 675.765C434.134 675.281 435.275 674.613 436.012 673.76C436.761 672.908 437.136 671.928 437.136 670.822C437.136 669.163 436.295 667.809 434.613 666.761C432.93 665.712 430.269 665.177 426.628 665.154C424.151 665.142 422.112 665.378 420.51 665.862C418.92 666.346 417.745 667.014 416.984 667.867C416.224 668.731 415.844 669.716 415.844 670.822ZM408.032 706.372C408.044 703.158 408.787 700.381 410.262 698.042C411.736 695.703 413.862 693.9 416.639 692.633C419.416 691.365 422.745 690.737 426.628 690.749C430.522 690.76 433.829 691.394 436.548 692.65C439.267 693.917 441.335 695.715 442.753 698.042C444.17 700.381 444.878 703.158 444.878 706.372C444.878 709.587 444.164 712.363 442.735 714.702C441.318 717.041 439.25 718.844 436.531 720.112C433.812 721.379 430.511 722.007 426.628 721.996C422.722 721.996 419.381 721.362 416.604 720.094C413.828 718.827 411.702 717.024 410.227 714.685C408.764 712.358 408.032 709.587 408.032 706.372ZM415.844 706.372C415.844 708.031 416.708 709.391 418.436 710.451C420.176 711.522 422.907 712.052 426.628 712.041C429.059 712.041 431.047 711.799 432.591 711.315C434.134 710.831 435.275 710.163 436.012 709.31C436.761 708.458 437.136 707.478 437.136 706.372C437.136 704.713 436.295 703.359 434.613 702.311C432.93 701.262 430.269 700.727 426.628 700.704C424.151 700.692 422.112 700.928 420.51 701.412C418.92 701.896 417.745 702.564 416.984 703.417C416.224 704.281 415.844 705.266 415.844 706.372ZM415.636 746.761L417.503 746.761C419.001 746.761 420.383 747.084 421.651 747.729C422.918 748.386 423.938 749.336 424.71 750.581C425.482 751.825 425.868 753.34 425.868 755.126C425.868 756.958 425.487 758.496 424.727 759.74C423.967 760.996 422.953 761.947 421.685 762.592C420.418 763.237 419.024 763.56 417.503 763.56L415.636 763.56C414.139 763.56 412.756 763.231 411.489 762.575C410.221 761.929 409.202 760.979 408.43 759.723C407.658 758.467 407.272 756.935 407.272 755.126C407.272 753.317 407.658 751.79 408.43 750.546C409.202 749.302 410.221 748.357 411.489 747.712C412.756 747.078 414.139 746.761 415.636 746.761ZM417.503 752.776L415.636 752.776C414.98 752.776 414.329 752.937 413.684 753.259C413.05 753.594 412.733 754.216 412.733 755.126C412.733 756.082 413.044 756.71 413.666 757.01C414.288 757.321 414.945 757.476 415.636 757.476L417.503 757.476C418.194 757.476 418.863 757.332 419.508 757.044C420.153 756.756 420.476 756.117 420.476 755.126C420.476 754.216 420.153 753.594 419.508 753.259C418.863 752.937 418.194 752.776 417.503 752.776ZM435.891 728.234L437.758 728.234C439.279 728.234 440.673 728.563 441.94 729.22C443.208 729.888 444.222 730.844 444.982 732.088C445.742 733.333 446.123 734.836 446.123 736.599C446.123 738.431 445.742 739.969 444.982 741.214C444.222 742.469 443.208 743.42 441.94 744.065C440.673 744.71 439.279 745.033 437.758 745.033L435.891 745.033C434.371 745.033 432.982 744.705 431.726 744.048C430.471 743.403 429.468 742.452 428.719 741.196C427.97 739.94 427.596 738.408 427.596 736.599C427.596 734.79 427.976 733.264 428.737 732.019C429.497 730.775 430.505 729.83 431.761 729.185C433.017 728.551 434.394 728.234 435.891 728.234ZM437.758 734.318L435.891 734.318C435.2 734.318 434.543 734.479 433.921 734.802C433.299 735.124 432.988 735.724 432.988 736.599C432.988 737.555 433.299 738.183 433.921 738.483C434.543 738.794 435.2 738.95 435.891 738.95L437.758 738.95C438.449 738.95 439.118 738.806 439.763 738.518C440.408 738.229 440.731 737.59 440.731 736.599C440.731 735.689 440.396 735.078 439.728 734.767C439.071 734.468 438.415 734.318 437.758 734.318ZM409 731.172L444.394 755.506L444.394 760.414L409 736.081L409 731.172ZM378 650.431L396.438 650.431L396.438 657.814C396.438 659.17 396.237 660.302 395.835 661.208C395.433 662.114 394.875 662.796 394.16 663.252C393.452 663.708 392.636 663.936 391.711 663.936C390.991 663.936 390.358 663.792 389.812 663.504C389.272 663.216 388.828 662.82 388.479 662.315C388.137 661.817 387.894 661.247 387.75 660.605L387.57 660.605C387.54 661.307 387.342 661.964 386.976 662.576C386.61 663.195 386.097 663.696 385.436 664.08C384.782 664.464 384.002 664.656 383.096 664.656C382.117 664.656 381.244 664.413 380.476 663.927C379.714 663.447 379.11 662.736 378.666 661.793C378.222 660.851 378 659.69 378 658.309L378 650.431ZM381.187 654.33L381.187 657.508C381.187 658.594 381.394 659.386 381.808 659.885C382.228 660.383 382.787 660.632 383.483 660.632C383.993 660.632 384.443 660.509 384.833 660.263C385.223 660.017 385.529 659.666 385.752 659.209C385.974 658.759 386.085 658.222 386.085 657.598L386.085 654.33L381.187 654.33ZM388.723 654.33L388.723 657.22C388.723 657.754 388.816 658.228 389.002 658.642C389.194 659.062 389.464 659.392 389.812 659.633C390.16 659.879 390.577 660.002 391.063 660.002C391.729 660.002 392.267 659.765 392.675 659.29C393.083 658.822 393.287 658.156 393.287 657.292L393.287 654.33L388.723 654.33ZM387.219 684.136C385.208 684.136 383.498 683.755 382.087 682.993C380.677 682.237 379.6 681.204 378.855 679.896C378.117 678.593 377.748 677.129 377.748 675.502C377.748 673.864 378.12 672.393 378.864 671.091C379.609 669.789 380.686 668.759 382.096 668.003C383.507 667.247 385.214 666.869 387.219 666.869C389.23 666.869 390.94 667.247 392.351 668.003C393.761 668.759 394.836 669.789 395.574 671.091C396.318 672.393 396.69 673.864 396.69 675.502C396.69 677.129 396.318 678.593 395.574 679.896C394.836 681.204 393.761 682.237 392.351 682.993C390.94 683.755 389.23 684.136 387.219 684.136ZM387.219 680.184C388.521 680.184 389.62 679.989 390.514 679.599C391.408 679.215 392.087 678.671 392.549 677.969C393.011 677.267 393.242 676.445 393.242 675.502C393.242 674.56 393.011 673.738 392.549 673.036C392.087 672.333 391.408 671.787 390.514 671.397C389.62 671.013 388.521 670.821 387.219 670.821C385.917 670.821 384.818 671.013 383.924 671.397C383.03 671.787 382.351 672.333 381.889 673.036C381.427 673.738 381.196 674.56 381.196 675.502C381.196 676.445 381.427 677.267 381.889 677.969C382.351 678.671 383.03 679.215 383.924 679.599C384.818 679.989 385.917 680.184 387.219 680.184ZM396.438 702.446L378 702.446L378 699.079L389.605 691.057L389.605 690.922L378 690.922L378 687.024L396.438 687.024L396.438 690.445L384.842 698.404L384.842 698.566L396.438 698.566L396.438 702.446ZM396.438 717.056L396.438 720.954L384.464 720.954C383.12 720.954 381.943 720.633 380.935 719.991C379.927 719.354 379.14 718.463 378.576 717.317C378.018 716.17 377.739 714.835 377.739 713.31C377.739 711.78 378.018 710.441 378.576 709.295C379.14 708.149 379.927 707.257 380.935 706.621C381.943 705.985 383.12 705.667 384.464 705.667L396.438 705.667L396.438 709.565L384.797 709.565C384.095 709.565 383.471 709.718 382.925 710.024C382.378 710.336 381.949 710.774 381.637 711.339C381.325 711.903 381.169 712.56 381.169 713.31C381.169 714.067 381.325 714.724 381.637 715.282C381.949 715.846 382.378 716.281 382.925 716.587C383.471 716.899 384.095 717.056 384.797 717.056L396.438 717.056ZM391.135 734.163C391.862 734.091 392.426 733.782 392.828 733.236C393.23 732.69 393.431 731.949 393.431 731.012C393.431 730.376 393.341 729.839 393.161 729.401C392.987 728.963 392.744 728.627 392.432 728.392C392.12 728.164 391.766 728.05 391.369 728.05C391.039 728.038 390.751 728.107 390.505 728.257C390.259 728.414 390.046 728.627 389.866 728.897C389.692 729.167 389.539 729.479 389.407 729.833C389.281 730.187 389.173 730.565 389.083 730.967L388.686 732.624C388.506 733.428 388.266 734.166 387.966 734.839C387.666 735.511 387.297 736.093 386.859 736.585C386.421 737.077 385.905 737.458 385.31 737.729C384.716 738.005 384.035 738.146 383.267 738.152C382.138 738.146 381.16 737.858 380.332 737.287C379.509 736.723 378.87 735.907 378.414 734.839C377.964 733.776 377.739 732.495 377.739 730.994C377.739 729.506 377.967 728.209 378.423 727.105C378.879 726.007 379.555 725.148 380.449 724.53C381.349 723.918 382.462 723.597 383.789 723.567L383.789 727.339C383.171 727.381 382.655 727.558 382.24 727.87C381.832 728.188 381.523 728.612 381.313 729.14C381.109 729.674 381.007 730.277 381.007 730.949C381.007 731.61 381.103 732.183 381.295 732.669C381.487 733.161 381.754 733.542 382.096 733.812C382.438 734.082 382.832 734.217 383.276 734.217C383.69 734.217 384.038 734.094 384.32 733.848C384.602 733.608 384.842 733.254 385.04 732.786C385.238 732.324 385.418 731.757 385.58 731.084L386.085 729.077C386.463 727.522 387.054 726.295 387.858 725.395C388.662 724.494 389.746 724.047 391.108 724.053C392.225 724.047 393.2 724.344 394.034 724.944C394.869 725.551 395.52 726.382 395.988 727.438C396.456 728.495 396.69 729.695 396.69 731.039C396.69 732.408 396.456 733.602 395.988 734.623C395.52 735.649 394.869 736.447 394.034 737.017C393.2 737.588 392.234 737.882 391.135 737.9L391.135 734.163Z" fill="url(#paint2_linear_2030_964)"/>
<path d="M188.719 480.377L192.176 486.364L186.202 502.425C185.807 503.492 185.498 504.455 185.276 505.315C185.05 506.19 184.962 507.006 185.013 507.762C185.053 508.523 185.281 509.263 185.696 509.982C186.151 510.77 186.709 511.346 187.371 511.709C188.023 512.077 188.73 512.241 189.491 512.201C190.259 512.17 191.026 511.933 191.795 511.489C192.563 511.046 193.152 510.5 193.562 509.85C193.962 509.207 194.149 508.494 194.123 507.711C194.097 506.928 193.836 506.107 193.34 505.249L201.243 500.686C202.487 502.842 203.075 504.977 203.006 507.092C202.936 509.208 202.261 511.194 200.979 513.052C199.696 514.91 197.868 516.524 195.493 517.895C193.039 519.313 190.686 520.145 188.434 520.394C186.179 520.659 184.154 520.365 182.358 519.512C180.552 518.666 179.099 517.29 177.998 515.384C177.319 514.206 176.886 512.893 176.701 511.443C176.522 510.003 176.66 508.214 177.114 506.076C177.569 503.937 178.403 501.221 179.614 497.927L181.105 493.873L181.001 493.694L169.028 500.607L165.191 493.961L188.719 480.377ZM148.957 502.776C151.312 501.416 153.641 500.623 155.945 500.397C158.245 500.187 160.342 500.513 162.237 501.374C164.122 502.242 165.624 503.623 166.744 505.517L158.662 510.184C158.021 509.143 157.126 508.536 155.974 508.363C154.813 508.195 153.684 508.428 152.586 509.062C151.738 509.551 151.093 510.163 150.652 510.897C150.217 511.64 150.008 512.453 150.024 513.335C150.041 514.216 150.311 515.098 150.834 515.981C151.342 516.884 151.971 517.559 152.72 518.004C153.476 518.46 154.281 518.68 155.137 518.665C155.999 518.659 156.854 518.412 157.702 517.922C158.58 517.415 159.269 516.731 159.77 515.87C160.266 515.025 160.473 514.127 160.39 513.177L168.524 510.397L177.074 527.971L156.479 539.861L152.642 533.216L166.412 525.266L163.105 518.155L162.925 518.259C162.982 519.464 162.597 520.71 161.771 521.998C160.951 523.297 159.763 524.395 158.206 525.294C156.38 526.348 154.509 526.863 152.593 526.839C150.666 526.82 148.857 526.302 147.164 525.283C145.468 524.28 144.063 522.803 142.949 520.852C141.707 518.722 141.121 516.533 141.192 514.283C141.26 512.049 141.945 509.93 143.25 507.926C144.56 505.933 146.462 504.216 148.957 502.776ZM119.055 528.262L119.988 529.878C120.737 531.175 121.149 532.534 121.224 533.954C121.289 535.38 120.975 536.738 120.284 538.029C119.592 539.32 118.473 540.411 116.926 541.304C115.34 542.22 113.817 542.66 112.36 542.624C110.892 542.593 109.562 542.19 108.369 541.415C107.177 540.64 106.2 539.594 105.44 538.277L104.507 536.661C103.758 535.364 103.351 534.002 103.286 532.576C103.211 531.156 103.524 529.798 104.226 528.501C104.928 527.205 106.062 526.104 107.628 525.2C109.195 524.295 110.71 523.866 112.173 523.913C113.637 523.959 114.965 524.37 116.158 525.145C117.34 525.925 118.306 526.964 119.055 528.262ZM114.779 532.885L113.846 531.269C113.518 530.7 113.053 530.217 112.451 529.819C111.844 529.438 111.147 529.474 110.359 529.929C109.531 530.408 109.142 530.991 109.194 531.68C109.236 532.374 109.429 533.02 109.775 533.619L110.708 535.236C111.054 535.834 111.513 536.341 112.085 536.756C112.657 537.17 113.372 537.13 114.23 536.635C115.018 536.18 115.396 535.589 115.363 534.863C115.319 534.143 115.125 533.484 114.779 532.885ZM145.227 536.54L146.16 538.156C146.92 539.473 147.333 540.845 147.398 542.271C147.453 543.702 147.132 545.058 146.434 546.339C145.737 547.62 144.625 548.701 143.098 549.582C141.512 550.498 139.99 550.938 138.532 550.902C137.064 550.871 135.734 550.468 134.541 549.693C133.349 548.918 132.372 547.872 131.612 546.555L130.679 544.939C129.918 543.622 129.509 542.255 129.449 540.839C129.38 539.429 129.702 538.086 130.415 536.809C131.129 535.533 132.268 534.442 133.835 533.538C135.401 532.633 136.914 532.199 138.372 532.236C139.829 532.272 141.152 532.673 142.338 533.438C143.515 534.208 144.478 535.242 145.227 536.54ZM140.892 541.198L139.958 539.581C139.613 538.983 139.145 538.494 138.554 538.117C137.964 537.739 137.289 537.77 136.531 538.207C135.703 538.686 135.315 539.269 135.366 539.958C135.408 540.652 135.602 541.298 135.947 541.897L136.88 543.514C137.226 544.112 137.685 544.619 138.257 545.034C138.829 545.448 139.544 545.408 140.402 544.913C141.191 544.458 141.552 543.863 141.488 543.129C141.419 542.41 141.22 541.766 140.892 541.198ZM129.237 514.72L125.86 557.539L121.61 559.993L124.986 517.174L129.237 514.72ZM166.497 457.412L175.716 473.38L169.323 477.071C168.148 477.749 167.068 478.141 166.082 478.246C165.096 478.35 164.227 478.208 163.474 477.817C162.725 477.432 162.12 476.839 161.657 476.039C161.297 475.415 161.106 474.794 161.082 474.177C161.061 473.566 161.182 472.983 161.445 472.429C161.705 471.884 162.078 471.388 162.562 470.942L162.472 470.787C161.848 471.112 161.18 471.269 160.467 471.258C159.749 471.25 159.058 471.056 158.395 470.676C157.735 470.302 157.179 469.722 156.726 468.937C156.237 468.09 156.011 467.212 156.047 466.304C156.082 465.403 156.397 464.525 156.99 463.67C157.584 462.814 158.479 462.041 159.675 461.351L166.497 457.412ZM164.714 462.121L161.962 463.71C161.021 464.253 160.439 464.829 160.214 465.436C159.993 466.049 160.056 466.657 160.405 467.26C160.66 467.702 160.991 468.03 161.399 468.245C161.808 468.46 162.265 468.55 162.771 468.514C163.272 468.481 163.792 468.309 164.333 467.997L167.163 466.363L164.714 462.121ZM168.482 468.647L165.979 470.092C165.517 470.359 165.153 470.677 164.887 471.045C164.619 471.421 164.468 471.82 164.435 472.242C164.395 472.666 164.498 473.089 164.741 473.51C165.074 474.087 165.548 474.434 166.162 474.55C166.772 474.669 167.451 474.513 168.199 474.081L170.764 472.6L168.482 468.647ZM141.917 482.248C140.912 480.507 140.387 478.835 140.342 477.232C140.291 475.633 140.647 474.184 141.408 472.885C142.166 471.594 143.25 470.542 144.659 469.729C146.078 468.91 147.537 468.497 149.037 468.49C150.537 468.483 151.968 468.902 153.328 469.745C154.688 470.589 155.869 471.878 156.871 473.614C157.877 475.356 158.405 477.026 158.455 478.626C158.505 480.225 158.151 481.67 157.392 482.961C156.636 484.257 155.549 485.314 154.13 486.133C152.721 486.947 151.267 487.357 149.767 487.363C148.265 487.378 146.833 486.964 145.473 486.121C144.108 485.28 142.923 483.989 141.917 482.248ZM145.34 480.272C145.991 481.4 146.709 482.254 147.494 482.833C148.274 483.415 149.084 483.731 149.923 483.78C150.762 483.829 151.59 483.618 152.406 483.147C153.222 482.676 153.818 482.065 154.196 481.314C154.573 480.562 154.707 479.702 154.597 478.732C154.483 477.766 154.1 476.718 153.449 475.59C152.797 474.463 152.082 473.607 151.302 473.025C150.517 472.446 149.705 472.131 148.866 472.082C148.027 472.033 147.199 472.244 146.383 472.715C145.567 473.186 144.97 473.798 144.593 474.549C144.216 475.3 144.085 476.159 144.199 477.126C144.309 478.095 144.689 479.144 145.34 480.272ZM130.67 499.387L121.451 483.419L124.367 481.736L137.116 487.775L137.233 487.707L131.431 477.657L134.807 475.708L144.026 491.676L141.063 493.386L128.373 487.324L128.233 487.405L134.03 497.447L130.67 499.387ZM118.018 506.692L114.642 508.641L108.655 498.271C107.983 497.107 107.673 495.927 107.725 494.733C107.771 493.542 108.15 492.415 108.861 491.353C109.574 490.297 110.591 489.387 111.912 488.625C113.237 487.86 114.536 487.432 115.808 487.343C117.083 487.258 118.248 487.493 119.303 488.048C120.358 488.604 121.222 489.463 121.894 490.628L127.881 500.997L124.505 502.946L118.684 492.865C118.333 492.257 117.889 491.793 117.35 491.473C116.807 491.156 116.213 491.004 115.568 491.015C114.924 491.027 114.277 491.221 113.627 491.596C112.972 491.974 112.481 492.438 112.153 492.987C111.821 493.539 111.659 494.129 111.667 494.755C111.669 495.384 111.846 496.002 112.197 496.61L118.018 506.692ZM100.551 510.653C100.976 511.246 101.526 511.58 102.2 511.655C102.874 511.731 103.617 511.534 104.427 511.066C104.978 510.748 105.399 510.401 105.688 510.026C105.98 509.656 106.15 509.278 106.197 508.891C106.238 508.506 106.16 508.143 105.962 507.8C105.807 507.508 105.603 507.293 105.35 507.155C105.092 507.019 104.801 506.941 104.477 506.921C104.156 506.905 103.809 506.928 103.437 506.991C103.067 507.059 102.685 507.155 102.292 507.278L100.659 507.763C99.8729 508.009 99.1136 508.17 98.3814 508.246C97.6491 508.323 96.9604 508.294 96.3151 508.161C95.6698 508.027 95.0817 507.771 94.5507 507.391C94.0145 507.015 93.5517 506.495 93.1624 505.833C92.6034 504.853 92.3637 503.862 92.4434 502.859C92.5208 501.865 92.9081 500.903 93.6053 499.974C94.3002 499.053 95.2974 498.217 96.5969 497.467C97.886 496.723 99.1227 496.272 100.307 496.115C101.487 495.961 102.567 496.117 103.55 496.582C104.53 497.056 105.365 497.859 106.054 498.993L102.787 500.879C102.442 500.365 102.03 500.006 101.553 499.804C101.074 499.609 100.553 499.553 99.9901 499.635C99.4255 499.726 98.8521 499.939 98.2699 500.275C97.6982 500.605 97.2498 500.975 96.9248 501.384C96.5946 501.797 96.3981 502.218 96.3352 502.65C96.2724 503.081 96.352 503.489 96.5741 503.874C96.7811 504.232 97.0617 504.472 97.4159 504.594C97.7649 504.718 98.1916 504.749 98.696 504.686C99.1953 504.627 99.7765 504.499 100.44 504.303L102.43 503.736C103.966 503.286 105.324 503.184 106.506 503.431C107.688 503.677 108.617 504.392 109.293 505.575C109.856 506.539 110.087 507.532 109.984 508.554C109.876 509.58 109.482 510.56 108.801 511.493C108.12 512.427 107.198 513.23 106.034 513.902C104.848 514.586 103.697 514.981 102.579 515.085C101.456 515.193 100.439 515.028 99.5285 514.591C98.6176 514.153 97.8797 513.464 97.315 512.521L100.551 510.653Z" fill="white"/>
<path d="M647.676 495.179C645.049 494.475 642.841 493.389 641.052 491.919C639.277 490.442 638.025 488.729 637.294 486.779C636.575 484.833 636.489 482.795 637.037 480.663L646.051 483.078C645.769 484.267 645.973 485.33 646.664 486.266C647.367 487.206 648.33 487.84 649.554 488.168C650.5 488.421 651.389 488.445 652.219 488.238C653.053 488.02 653.776 487.593 654.387 486.958C654.999 486.323 655.432 485.508 655.686 484.515C655.965 483.516 655.998 482.595 655.783 481.75C655.571 480.894 655.157 480.168 654.541 479.574C653.928 478.968 653.148 478.539 652.202 478.285C651.223 478.023 650.252 478.019 649.289 478.274C648.34 478.521 647.559 479.009 646.946 479.74L639.229 475.954L645.61 457.482L668.58 463.637L666.594 471.049L651.236 466.933L648.547 474.3L648.747 474.354C649.558 473.462 650.712 472.852 652.207 472.525C653.705 472.187 655.322 472.251 657.058 472.716C659.095 473.262 660.782 474.221 662.12 475.593C663.469 476.968 664.382 478.615 664.858 480.531C665.349 482.44 665.298 484.478 664.705 486.645C664.078 489.03 662.944 490.992 661.303 492.533C659.676 494.065 657.692 495.078 655.353 495.572C653.017 496.056 650.458 495.925 647.676 495.179ZM680.199 504.395C677.097 503.552 674.607 502.115 672.729 500.085C670.852 498.055 669.66 495.535 669.155 492.525C668.649 489.515 668.905 486.136 669.921 482.389C670.94 478.63 672.408 475.6 674.325 473.299C676.252 471 678.524 469.468 681.139 468.701C683.765 467.938 686.63 467.972 689.735 468.804C692.84 469.636 695.337 471.045 697.227 473.03C699.119 475.004 700.326 477.469 700.846 480.423C701.367 483.378 701.119 486.729 700.103 490.476C699.092 494.249 697.615 497.312 695.672 499.666C693.729 502.02 691.437 503.607 688.796 504.426C686.17 505.237 683.304 505.227 680.199 504.395ZM682.221 496.849C683.823 497.279 685.36 496.796 686.831 495.401C688.316 493.998 689.535 491.497 690.487 487.9C691.116 485.551 691.397 483.569 691.329 481.953C691.261 480.336 690.911 479.061 690.278 478.128C689.649 477.184 688.8 476.569 687.731 476.283C686.129 475.853 684.603 476.315 683.155 477.669C681.707 479.022 680.501 481.455 679.536 484.965C678.884 487.355 678.584 489.386 678.637 491.058C678.693 492.719 679.034 494.027 679.661 494.983C680.299 495.941 681.152 496.563 682.221 496.849ZM721.18 507.503L721.663 505.7C722.05 504.253 722.72 503.001 723.671 501.944C724.634 500.89 725.816 500.151 727.217 499.727C728.619 499.304 730.182 499.323 731.907 499.785C733.677 500.26 735.064 501.025 736.069 502.081C737.086 503.141 737.741 504.366 738.037 505.758C738.332 507.149 738.283 508.579 737.889 510.048L737.406 511.851C737.018 513.298 736.343 514.548 735.381 515.602C734.43 516.66 733.247 517.398 731.835 517.819C730.422 518.24 728.842 518.216 727.094 517.748C725.347 517.28 723.972 516.512 722.97 515.444C721.968 514.376 721.32 513.147 721.024 511.756C720.74 510.367 720.792 508.95 721.18 507.503ZM727.472 507.257L726.989 509.06C726.819 509.694 726.806 510.365 726.951 511.071C727.11 511.77 727.629 512.237 728.508 512.473C729.432 512.72 730.119 512.582 730.569 512.059C731.031 511.538 731.351 510.944 731.53 510.276L732.013 508.473C732.192 507.806 732.226 507.123 732.114 506.425C732.003 505.727 731.469 505.25 730.512 504.994C729.633 504.758 728.948 504.909 728.458 505.446C727.98 505.985 727.651 506.589 727.472 507.257ZM708.527 483.143L709.01 481.34C709.403 479.871 710.081 478.61 711.044 477.555C712.017 476.504 713.203 475.772 714.602 475.36C716.001 474.947 717.552 474.969 719.254 475.425C721.024 475.9 722.411 476.665 723.416 477.722C724.433 478.781 725.088 480.006 725.383 481.398C725.679 482.789 725.629 484.219 725.236 485.688L724.753 487.491C724.359 488.96 723.683 490.216 722.723 491.259C721.775 492.305 720.597 493.027 719.19 493.426C717.784 493.824 716.206 493.789 714.459 493.321C712.712 492.853 711.336 492.09 710.331 491.034C709.326 489.977 708.674 488.759 708.376 487.379C708.089 486.002 708.139 484.59 708.527 483.143ZM714.886 482.915L714.403 484.718C714.224 485.385 714.21 486.061 714.36 486.746C714.511 487.43 715.009 487.886 715.855 488.113C716.779 488.36 717.466 488.222 717.916 487.699C718.377 487.178 718.698 486.584 718.877 485.916L719.36 484.114C719.539 483.446 719.572 482.763 719.461 482.065C719.35 481.367 718.816 480.89 717.859 480.634C716.98 480.398 716.303 480.563 715.83 481.128C715.37 481.685 715.056 482.28 714.886 482.915ZM704.404 509.879L737.07 481.988L741.811 483.259L709.145 511.149L704.404 509.879ZM635.561 523.526L640.333 505.716L647.464 507.627C648.774 507.978 649.815 508.465 650.586 509.088C651.357 509.711 651.871 510.426 652.127 511.234C652.384 512.036 652.393 512.884 652.154 513.777C651.967 514.472 651.664 515.047 651.245 515.5C650.826 515.947 650.329 516.273 649.752 516.479C649.182 516.681 648.568 516.768 647.911 516.741L647.864 516.915C648.535 517.125 649.118 517.487 649.615 517.999C650.117 518.513 650.469 519.138 650.669 519.875C650.87 520.606 650.854 521.41 650.619 522.285C650.366 523.23 649.905 524.011 649.237 524.627C648.576 525.239 647.733 525.638 646.708 525.823C645.682 526.008 644.503 525.922 643.17 525.564L635.561 523.526ZM640.151 521.456L643.221 522.279C644.27 522.56 645.089 522.565 645.677 522.294C646.267 522.017 646.652 521.542 646.832 520.87C646.964 520.377 646.962 519.91 646.825 519.47C646.689 519.029 646.429 518.643 646.046 518.31C645.668 517.979 645.178 517.733 644.575 517.571L641.418 516.725L640.151 521.456ZM642.101 514.177L644.893 514.925C645.409 515.064 645.891 515.097 646.339 515.024C646.794 514.947 647.183 514.772 647.505 514.498C647.833 514.225 648.06 513.854 648.186 513.384C648.358 512.741 648.268 512.161 647.916 511.644C647.569 511.128 646.978 510.759 646.144 510.535L643.283 509.768L642.101 514.177ZM670.503 523.344C669.983 525.286 669.172 526.84 668.07 528.005C666.975 529.172 665.699 529.945 664.242 530.325C662.793 530.701 661.283 530.679 659.712 530.258C658.129 529.834 656.805 529.094 655.74 528.038C654.674 526.982 653.959 525.675 653.594 524.117C653.228 522.559 653.305 520.811 653.824 518.875C654.344 516.933 655.152 515.378 656.248 514.212C657.343 513.045 658.615 512.274 660.065 511.898C661.515 511.516 663.032 511.537 664.615 511.961C666.186 512.382 667.504 513.121 668.569 514.177C669.642 515.228 670.361 516.533 670.727 518.091C671.098 519.651 671.023 521.402 670.503 523.344ZM666.685 522.321C667.022 521.063 667.118 519.952 666.973 518.987C666.833 518.024 666.484 517.228 665.926 516.6C665.367 515.972 664.632 515.536 663.722 515.292C662.812 515.048 661.958 515.058 661.16 515.323C660.362 515.588 659.659 516.101 659.051 516.864C658.448 517.629 657.978 518.64 657.641 519.898C657.304 521.156 657.205 522.267 657.345 523.23C657.49 524.195 657.842 524.991 658.401 525.619C658.96 526.247 659.694 526.683 660.604 526.927C661.515 527.171 662.369 527.161 663.167 526.896C663.965 526.632 664.665 526.117 665.267 525.353C665.876 524.59 666.348 523.579 666.685 522.321ZM690.575 519.178L685.803 536.988L682.55 536.116L677.806 522.831L677.675 522.796L674.672 534.005L670.906 532.996L675.678 515.187L678.983 516.072L683.669 529.333L683.826 529.375L686.827 518.174L690.575 519.178ZM704.687 522.959L708.452 523.968L705.353 535.534C705.005 536.833 704.39 537.886 703.509 538.694C702.634 539.503 701.569 540.032 700.316 540.28C699.064 540.523 697.702 540.447 696.229 540.052C694.751 539.656 693.53 539.04 692.568 538.204C691.606 537.362 690.949 536.372 690.595 535.234C690.242 534.095 690.239 532.876 690.587 531.578L693.686 520.012L697.451 521.021L694.439 532.265C694.257 532.943 694.243 533.586 694.397 534.193C694.557 534.801 694.87 535.329 695.334 535.776C695.798 536.224 696.392 536.545 697.117 536.739C697.848 536.935 698.523 536.954 699.143 536.797C699.768 536.641 700.3 536.34 700.737 535.891C701.18 535.444 701.492 534.882 701.674 534.204L704.687 522.959ZM719.839 532.509C719.957 531.789 719.805 531.164 719.381 530.634C718.958 530.105 718.294 529.719 717.39 529.476C716.775 529.312 716.233 529.259 715.763 529.32C715.295 529.375 714.907 529.523 714.6 529.763C714.299 530.006 714.097 530.318 713.995 530.701C713.898 531.017 713.89 531.313 713.971 531.589C714.058 531.868 714.209 532.129 714.423 532.372C714.639 532.61 714.901 532.839 715.209 533.058C715.518 533.272 715.856 533.474 716.221 533.665L717.718 534.476C718.448 534.858 719.099 535.281 719.671 535.745C720.243 536.209 720.71 536.716 721.072 537.267C721.433 537.817 721.668 538.415 721.775 539.058C721.888 539.704 721.848 540.398 721.655 541.142C721.357 542.23 720.826 543.101 720.06 543.753C719.303 544.401 718.349 544.808 717.199 544.972C716.056 545.132 714.76 545.017 713.311 544.629C711.873 544.244 710.68 543.688 709.731 542.961C708.788 542.237 708.134 541.362 707.768 540.338C707.41 539.31 707.388 538.152 707.702 536.863L711.346 537.839C711.227 538.447 711.264 538.992 711.458 539.472C711.66 539.949 711.989 540.357 712.444 540.697C712.908 541.032 713.464 541.287 714.113 541.461C714.751 541.632 715.329 541.687 715.849 541.627C716.374 541.569 716.811 541.41 717.16 541.149C717.51 540.889 717.742 540.544 717.857 540.115C717.964 539.715 717.935 539.347 717.771 539.011C717.612 538.676 717.332 538.353 716.931 538.04C716.536 537.729 716.035 537.408 715.427 537.078L713.619 536.071C712.215 535.304 711.182 534.415 710.521 533.405C709.859 532.395 709.708 531.233 710.066 529.919C710.349 528.839 710.889 527.974 711.684 527.323C712.486 526.674 713.457 526.26 714.599 526.081C715.74 525.903 716.961 525.987 718.259 526.335C719.581 526.689 720.674 527.225 721.538 527.941C722.409 528.659 723.011 529.494 723.346 530.448C723.681 531.401 723.715 532.411 723.448 533.476L719.839 532.509Z" fill="white"/>
<path d="M237.944 220.991L268.597 203.293L273.401 211.615L250.412 224.888L250.515 225.068L258.398 229.457L251.333 233.536L242.368 228.654L237.944 220.991ZM258.093 183.165C259.69 185.955 260.435 188.731 260.327 191.494C260.22 194.257 259.28 196.881 257.509 199.367C255.738 201.853 253.169 204.062 249.8 205.993C246.422 207.931 243.241 209.035 240.259 209.307C237.27 209.569 234.58 209.047 232.189 207.74C229.793 206.423 227.791 204.372 226.183 201.588C224.576 198.805 223.806 196.043 223.874 193.303C223.932 190.569 224.822 187.973 226.543 185.516C228.264 183.059 230.809 180.864 234.177 178.933C237.559 176.98 240.77 175.858 243.808 175.568C246.847 175.277 249.589 175.775 252.036 177.064C254.467 178.348 256.486 180.381 258.093 183.165ZM251.328 187.071C250.498 185.634 249.07 184.889 247.044 184.835C245.001 184.777 242.371 185.683 239.154 187.554C237.049 188.77 235.449 189.973 234.354 191.164C233.258 192.355 232.605 193.504 232.392 194.611C232.17 195.724 232.336 196.759 232.889 197.717C233.718 199.154 235.123 199.906 237.104 199.973C239.085 200.04 241.658 199.173 244.823 197.372C246.974 196.144 248.622 194.92 249.767 193.7C250.902 192.486 251.586 191.319 251.818 190.201C252.044 189.072 251.881 188.029 251.328 187.071ZM231.313 151.989L229.697 152.923C228.399 153.672 227.041 154.084 225.621 154.158C224.195 154.223 222.836 153.91 221.546 153.218C220.255 152.527 219.163 151.408 218.27 149.861C217.354 148.275 216.914 146.752 216.951 145.295C216.981 143.827 217.384 142.497 218.159 141.304C218.934 140.112 219.98 139.135 221.297 138.375L222.914 137.442C224.211 136.693 225.572 136.286 226.998 136.221C228.419 136.146 229.777 136.459 231.073 137.161C232.37 137.862 233.47 138.997 234.375 140.563C235.279 142.13 235.708 143.645 235.662 145.108C235.616 146.572 235.205 147.9 234.43 149.092C233.649 150.275 232.61 151.241 231.313 151.989ZM226.689 147.714L228.306 146.781C228.875 146.453 229.358 145.987 229.755 145.385C230.137 144.779 230.1 144.082 229.645 143.294C229.167 142.466 228.584 142.077 227.895 142.129C227.201 142.171 226.554 142.364 225.955 142.71L224.339 143.643C223.74 143.989 223.234 144.448 222.819 145.02C222.404 145.592 222.444 146.307 222.94 147.165C223.395 147.953 223.985 148.331 224.711 148.298C225.431 148.254 226.091 148.06 226.689 147.714ZM223.035 178.162L221.419 179.095C220.102 179.855 218.73 180.268 217.304 180.333C215.872 180.388 214.516 180.067 213.235 179.369C211.955 178.672 210.874 177.56 209.992 176.033C209.076 174.447 208.636 172.925 208.673 171.467C208.703 169.999 209.106 168.669 209.881 167.476C210.656 166.284 211.702 165.307 213.019 164.547L214.636 163.614C215.953 162.853 217.319 162.443 218.735 162.384C220.146 162.315 221.489 162.637 222.765 163.35C224.042 164.063 225.132 165.203 226.037 166.77C226.941 168.336 227.375 169.849 227.339 171.306C227.303 172.764 226.902 174.087 226.137 175.273C225.366 176.45 224.332 177.413 223.035 178.162ZM218.377 173.827L219.993 172.893C220.592 172.548 221.08 172.08 221.458 171.489C221.835 170.899 221.805 170.224 221.367 169.466C220.889 168.638 220.306 168.249 219.617 168.301C218.923 168.343 218.276 168.536 217.678 168.882L216.061 169.815C215.462 170.161 214.956 170.62 214.541 171.192C214.126 171.764 214.167 172.479 214.662 173.337C215.117 174.125 215.712 174.487 216.446 174.422C217.165 174.354 217.808 174.155 218.377 173.827ZM244.855 162.172L202.035 158.795L199.581 154.545L242.401 157.921L244.855 162.172ZM301.2 197.765L285.233 206.984L281.541 200.591C280.863 199.416 280.472 198.335 280.367 197.35C280.262 196.364 280.405 195.495 280.795 194.742C281.18 193.993 281.773 193.388 282.574 192.925C283.197 192.565 283.818 192.373 284.435 192.35C285.047 192.329 285.629 192.45 286.183 192.713C286.728 192.973 287.224 193.345 287.67 193.83L287.826 193.74C287.501 193.116 287.343 192.448 287.354 191.735C287.362 191.017 287.556 190.326 287.936 189.663C288.31 189.003 288.89 188.447 289.675 187.994C290.522 187.505 291.4 187.278 292.308 187.315C293.209 187.35 294.087 187.664 294.942 188.258C295.798 188.852 296.571 189.747 297.262 190.943L301.2 197.765ZM296.491 195.982L294.902 193.23C294.359 192.289 293.783 191.707 293.176 191.482C292.563 191.261 291.955 191.324 291.352 191.673C290.91 191.928 290.582 192.259 290.367 192.667C290.152 193.076 290.063 193.533 290.098 194.039C290.131 194.54 290.304 195.06 290.616 195.601L292.25 198.431L296.491 195.982ZM289.965 199.75L288.52 197.247C288.253 196.785 287.936 196.421 287.567 196.155C287.191 195.887 286.792 195.736 286.37 195.702C285.946 195.663 285.523 195.765 285.102 196.009C284.525 196.342 284.178 196.816 284.062 197.43C283.943 198.04 284.099 198.719 284.531 199.467L286.012 202.032L289.965 199.75ZM276.364 173.185C278.105 172.18 279.777 171.655 281.38 171.61C282.979 171.559 284.429 171.915 285.727 172.676C287.018 173.434 288.07 174.518 288.883 175.927C289.702 177.346 290.115 178.805 290.122 180.305C290.129 181.805 289.71 183.236 288.867 184.596C288.024 185.956 286.734 187.137 284.998 188.139C283.257 189.145 281.586 189.673 279.987 189.723C278.387 189.773 276.942 189.419 275.651 188.66C274.356 187.904 273.298 186.817 272.479 185.398C271.665 183.989 271.255 182.535 271.249 181.035C271.234 179.533 271.648 178.101 272.492 176.741C273.332 175.376 274.623 174.191 276.364 173.185ZM278.34 176.608C277.212 177.259 276.359 177.977 275.779 178.762C275.197 179.542 274.881 180.352 274.832 181.191C274.783 182.03 274.994 182.858 275.465 183.674C275.936 184.49 276.547 185.086 277.299 185.463C278.05 185.841 278.91 185.974 279.88 185.865C280.847 185.751 281.894 185.368 283.022 184.717C284.15 184.065 285.005 183.35 285.587 182.57C286.167 181.785 286.481 180.973 286.53 180.134C286.579 179.295 286.368 178.467 285.897 177.651C285.426 176.835 284.815 176.238 284.063 175.861C283.312 175.484 282.453 175.353 281.486 175.467C280.517 175.577 279.468 175.957 278.34 176.608ZM259.225 161.938L275.193 152.719L276.877 155.635L270.837 168.384L270.905 168.501L280.955 162.699L282.904 166.075L266.936 175.294L265.226 172.331L271.289 159.641L271.208 159.501L261.165 165.298L259.225 161.938ZM251.92 149.286L249.971 145.91L260.341 139.923C261.505 139.251 262.685 138.94 263.879 138.992C265.07 139.039 266.197 139.418 267.259 140.129C268.315 140.842 269.225 141.859 269.987 143.18C270.752 144.505 271.18 145.804 271.27 147.076C271.354 148.351 271.119 149.516 270.564 150.571C270.009 151.626 269.149 152.49 267.985 153.162L257.615 159.149L255.666 155.773L265.747 149.952C266.355 149.601 266.819 149.157 267.139 148.618C267.456 148.075 267.609 147.481 267.597 146.836C267.585 146.192 267.392 145.544 267.016 144.895C266.638 144.24 266.175 143.749 265.625 143.421C265.073 143.089 264.484 142.926 263.858 142.934C263.228 142.937 262.61 143.114 262.002 143.465L251.92 149.286ZM247.959 131.819C247.366 132.244 247.032 132.794 246.957 133.468C246.882 134.142 247.078 134.884 247.546 135.695C247.864 136.246 248.211 136.666 248.586 136.956C248.956 137.248 249.334 137.418 249.722 137.465C250.106 137.506 250.47 137.428 250.813 137.23C251.105 137.075 251.32 136.871 251.458 136.618C251.593 136.36 251.671 136.069 251.692 135.745C251.707 135.424 251.684 135.077 251.621 134.705C251.553 134.335 251.458 133.953 251.335 133.56L250.849 131.927C250.603 131.141 250.442 130.382 250.366 129.649C250.29 128.917 250.318 128.228 250.451 127.583C250.585 126.938 250.841 126.35 251.221 125.819C251.597 125.282 252.117 124.82 252.779 124.43C253.759 123.871 254.751 123.632 255.753 123.711C256.747 123.789 257.709 124.176 258.638 124.873C259.559 125.568 260.395 126.565 261.145 127.865C261.889 129.154 262.34 130.391 262.497 131.575C262.651 132.754 262.496 133.835 262.03 134.818C261.557 135.798 260.753 136.633 259.619 137.322L257.733 134.055C258.248 133.71 258.606 133.298 258.809 132.821C259.003 132.342 259.059 131.821 258.977 131.258C258.887 130.693 258.673 130.12 258.337 129.538C258.007 128.966 257.637 128.518 257.228 128.193C256.816 127.863 256.394 127.666 255.962 127.603C255.531 127.54 255.123 127.62 254.738 127.842C254.38 128.049 254.14 128.33 254.019 128.684C253.894 129.033 253.863 129.46 253.926 129.964C253.986 130.463 254.113 131.044 254.309 131.708L254.876 133.698C255.326 135.234 255.428 136.592 255.181 137.774C254.935 138.956 254.22 139.885 253.037 140.561C252.074 141.124 251.08 141.355 250.058 141.252C249.032 141.144 248.053 140.75 247.119 140.069C246.185 139.388 245.382 138.466 244.71 137.301C244.026 136.116 243.632 134.965 243.527 133.847C243.419 132.724 243.584 131.707 244.021 130.796C244.459 129.886 245.149 129.148 246.091 128.583L247.959 131.819Z" fill="white"/>
<path d="M568.904 227.219L562.917 223.763L560.06 206.867C559.869 205.746 559.655 204.757 559.417 203.901C559.175 203.03 558.843 202.28 558.422 201.65C558.006 201.011 557.439 200.484 556.72 200.069C555.932 199.614 555.16 199.395 554.406 199.412C553.657 199.418 552.963 199.63 552.324 200.046C551.674 200.456 551.128 201.045 550.684 201.813C550.241 202.582 550.004 203.349 549.973 204.117C549.948 204.874 550.143 205.585 550.557 206.25C550.972 206.915 551.608 207.495 552.466 207.991L547.904 215.893C545.748 214.649 544.172 213.093 543.174 211.227C542.176 209.36 541.768 207.302 541.95 205.052C542.131 202.802 542.907 200.49 544.279 198.115C545.696 195.66 547.317 193.762 549.142 192.421C550.963 191.065 552.864 190.307 554.846 190.147C556.833 189.977 558.779 190.442 560.685 191.543C561.863 192.222 562.894 193.144 563.779 194.307C564.654 195.464 565.429 197.082 566.105 199.162C566.78 201.241 567.416 204.01 568.014 207.468L568.75 211.724L568.929 211.828L575.842 199.854L582.488 203.691L568.904 227.219ZM592.14 187.941C590.78 190.296 589.159 192.147 587.277 193.495C585.39 194.827 583.411 195.593 581.34 195.794C579.274 195.985 577.282 195.54 575.365 194.46L580.031 186.378C581.106 186.959 582.185 187.036 583.269 186.611C584.359 186.176 585.22 185.409 585.854 184.312C586.343 183.463 586.596 182.611 586.611 181.755C586.616 180.894 586.391 180.085 585.936 179.33C585.481 178.575 584.806 177.946 583.912 177.443C583.02 176.915 582.138 176.645 581.266 176.634C580.385 176.617 579.577 176.829 578.843 177.271C578.1 177.706 577.483 178.348 576.993 179.196C576.486 180.074 576.231 181.011 576.228 182.007C576.221 182.987 576.491 183.868 577.038 184.65L571.384 191.124L555.192 180.179L567.083 159.585L573.728 163.421L565.778 177.191L572.198 181.696L572.301 181.516C571.65 180.501 571.36 179.229 571.431 177.701C571.492 176.166 571.972 174.62 572.871 173.064C573.925 171.238 575.288 169.856 576.96 168.919C578.637 167.972 580.464 167.516 582.439 167.552C584.409 167.573 586.364 168.149 588.304 169.283C590.445 170.505 592.048 172.109 593.111 174.093C594.169 176.061 594.635 178.239 594.507 180.627C594.369 183.008 593.58 185.446 592.14 187.941ZM605.293 150.918L603.677 149.985C602.38 149.236 601.343 148.265 600.569 147.073C599.799 145.87 599.391 144.537 599.345 143.074C599.299 141.61 599.722 140.105 600.615 138.558C601.531 136.972 602.629 135.83 603.91 135.133C605.196 134.425 606.55 134.109 607.97 134.184C609.39 134.259 610.759 134.676 612.076 135.437L613.692 136.37C614.99 137.119 616.023 138.095 616.792 139.297C617.567 140.49 617.975 141.823 618.015 143.296C618.056 144.77 617.624 146.29 616.72 147.856C615.815 149.423 614.717 150.552 613.427 151.244C612.136 151.935 610.781 152.244 609.36 152.169C607.946 152.084 606.59 151.667 605.293 150.918ZM606.684 144.776L608.3 145.71C608.869 146.038 609.513 146.224 610.233 146.267C610.949 146.294 611.535 145.914 611.99 145.126C612.468 144.298 612.513 143.598 612.124 143.028C611.74 142.447 611.249 141.984 610.651 141.639L609.034 140.705C608.436 140.36 607.785 140.15 607.082 140.077C606.379 140.004 605.78 140.396 605.285 141.255C604.83 142.043 604.798 142.743 605.19 143.355C605.587 143.957 606.085 144.431 606.684 144.776ZM578.488 156.835L576.872 155.902C575.555 155.142 574.512 154.16 573.742 152.958C572.979 151.745 572.579 150.41 572.543 148.952C572.506 147.495 572.929 146.002 573.81 144.476C574.726 142.889 575.825 141.747 577.105 141.05C578.392 140.342 579.745 140.026 581.165 140.101C582.585 140.176 583.954 140.594 585.271 141.354L586.888 142.287C588.205 143.048 589.243 144.026 590.002 145.223C590.767 146.41 591.16 147.734 591.181 149.196C591.201 150.658 590.759 152.172 589.855 153.739C588.95 155.306 587.858 156.438 586.577 157.135C585.296 157.832 583.951 158.147 582.541 158.077C581.136 157.998 579.786 157.584 578.488 156.835ZM579.914 150.634L581.53 151.567C582.129 151.913 582.778 152.101 583.478 152.133C584.178 152.165 584.747 151.801 585.185 151.043C585.663 150.215 585.708 149.515 585.319 148.945C584.936 148.364 584.445 147.901 583.846 147.556L582.229 146.622C581.631 146.277 580.98 146.067 580.277 145.994C579.574 145.921 578.975 146.314 578.48 147.172C578.025 147.96 578.009 148.656 578.432 149.259C578.851 149.847 579.345 150.305 579.914 150.634ZM603.246 167.737L584.76 128.966L587.215 124.715L605.7 163.486L603.246 167.737ZM599.632 235.997L583.664 226.778L587.355 220.385C588.033 219.21 588.773 218.331 589.575 217.747C590.376 217.163 591.2 216.852 592.047 216.814C592.888 216.773 593.709 216.984 594.509 217.446C595.133 217.806 595.61 218.247 595.938 218.77C596.262 219.29 596.449 219.855 596.498 220.465C596.545 221.068 596.471 221.683 596.274 222.311L596.43 222.401C596.807 221.808 597.308 221.338 597.931 220.991C598.557 220.639 599.252 220.461 600.016 220.459C600.774 220.453 601.546 220.677 602.331 221.13C603.178 221.619 603.813 222.266 604.235 223.072C604.655 223.869 604.822 224.786 604.736 225.824C604.649 226.862 604.261 227.979 603.57 229.175L599.632 235.997ZM598.821 231.027L600.41 228.275C600.953 227.334 601.17 226.545 601.06 225.906C600.945 225.265 600.587 224.77 599.984 224.422C599.542 224.167 599.09 224.048 598.63 224.066C598.169 224.084 597.728 224.235 597.308 224.519C596.89 224.798 596.525 225.208 596.213 225.748L594.579 228.579L598.821 231.027ZM592.295 227.26L593.74 224.757C594.007 224.294 594.163 223.837 594.209 223.385C594.253 222.926 594.184 222.505 594.003 222.123C593.824 221.736 593.525 221.42 593.104 221.177C592.527 220.844 591.943 220.781 591.352 220.987C590.765 221.189 590.255 221.664 589.823 222.412L588.342 224.977L592.295 227.26ZM608.5 202.198C610.241 203.204 611.532 204.389 612.373 205.754C613.216 207.114 613.633 208.547 613.623 210.052C613.611 211.549 613.199 213.002 612.385 214.411C611.566 215.83 610.509 216.917 609.213 217.673C607.917 218.429 606.47 218.782 604.87 218.731C603.27 218.681 601.602 218.155 599.866 217.152C598.125 216.147 596.833 214.964 595.989 213.604C595.146 212.244 594.73 210.815 594.742 209.318C594.749 207.818 595.162 206.359 595.981 204.94C596.794 203.531 597.849 202.449 599.145 201.693C600.438 200.929 601.885 200.572 603.484 200.623C605.087 200.668 606.759 201.193 608.5 202.198ZM606.524 205.621C605.396 204.97 604.347 204.59 603.378 204.48C602.411 204.366 601.552 204.497 600.801 204.874C600.05 205.251 599.438 205.848 598.967 206.664C598.496 207.48 598.285 208.308 598.334 209.147C598.383 209.986 598.698 210.798 599.277 211.583C599.859 212.363 600.715 213.078 601.843 213.73C602.97 214.381 604.018 214.764 604.984 214.878C605.954 214.987 606.814 214.854 607.566 214.477C608.317 214.099 608.928 213.503 609.399 212.687C609.87 211.871 610.081 211.043 610.032 210.204C609.983 209.365 609.667 208.555 609.085 207.775C608.506 206.99 607.652 206.272 606.524 205.621ZM609.671 181.732L625.639 190.951L623.955 193.867L609.895 195.012L609.827 195.129L619.877 200.931L617.928 204.307L601.96 195.088L603.671 192.125L617.692 191.031L617.773 190.89L607.731 185.092L609.671 181.732ZM616.976 169.08L618.925 165.704L629.295 171.691C630.459 172.363 631.317 173.229 631.869 174.29C632.425 175.345 632.66 176.51 632.575 177.785C632.485 179.056 632.059 180.353 631.297 181.673C630.532 182.998 629.621 184.018 628.564 184.732C627.503 185.442 626.376 185.821 625.185 185.868C623.993 185.915 622.816 185.602 621.651 184.93L611.282 178.943L613.231 175.567L623.312 181.387C623.92 181.738 624.537 181.918 625.163 181.926C625.792 181.929 626.383 181.764 626.935 181.431C627.488 181.099 627.952 180.607 628.327 179.958C628.705 179.303 628.898 178.656 628.907 178.016C628.919 177.372 628.765 176.78 628.445 176.242C628.128 175.699 627.665 175.251 627.057 174.9L616.976 169.08ZM630.122 156.915C629.457 156.615 628.814 156.6 628.193 156.872C627.571 157.144 627.027 157.685 626.558 158.496C626.24 159.047 626.05 159.558 625.987 160.027C625.918 160.493 625.961 160.906 626.114 161.265C626.27 161.618 626.52 161.894 626.863 162.092C627.143 162.268 627.427 162.352 627.715 162.345C628.006 162.333 628.297 162.255 628.588 162.111C628.874 161.964 629.163 161.771 629.454 161.53C629.74 161.286 630.023 161.013 630.302 160.71L631.473 159.473C632.031 158.867 632.608 158.347 633.204 157.915C633.8 157.483 634.411 157.163 635.037 156.956C635.662 156.749 636.3 156.677 636.949 156.74C637.602 156.798 638.262 157.017 638.931 157.396C639.905 157.965 640.608 158.704 641.04 159.612C641.47 160.511 641.616 161.538 641.477 162.691C641.335 163.836 640.889 165.059 640.139 166.358C639.395 167.647 638.549 168.656 637.602 169.384C636.658 170.107 635.644 170.513 634.56 170.601C633.475 170.681 632.35 170.403 631.186 169.765L633.072 166.498C633.629 166.771 634.164 166.876 634.679 166.813C635.191 166.741 635.671 166.529 636.117 166.177C636.56 165.816 636.95 165.345 637.286 164.763C637.617 164.191 637.82 163.647 637.897 163.13C637.977 162.607 637.936 162.144 637.775 161.739C637.613 161.334 637.34 161.02 636.956 160.798C636.597 160.591 636.234 160.524 635.867 160.596C635.502 160.663 635.117 160.849 634.712 161.156C634.309 161.457 633.87 161.858 633.393 162.359L631.953 163.846C630.848 165.003 629.722 165.77 628.576 166.148C627.429 166.525 626.267 166.371 625.09 165.685C624.121 165.132 623.424 164.387 623.002 163.45C622.583 162.508 622.434 161.462 622.557 160.313C622.68 159.164 623.077 158.008 623.75 156.843C624.434 155.658 625.234 154.741 626.149 154.091C627.068 153.437 628.031 153.071 629.039 152.994C630.046 152.918 631.03 153.146 631.99 153.68L630.122 156.915Z" fill="white"/>
<path d="M610.504 614.665L579.852 632.362L575.047 624.041L598.037 610.768L597.933 610.588L590.051 606.199L597.115 602.12L606.08 607.002L610.504 614.665ZM590.355 652.491C588.758 649.701 588.013 646.925 588.121 644.162C588.229 641.399 589.168 638.774 590.939 636.288C592.71 633.802 595.28 631.594 598.648 629.662C602.027 627.725 605.207 626.621 608.19 626.349C611.178 626.087 613.868 626.609 616.259 627.916C618.656 629.233 620.658 631.284 622.265 634.067C623.872 636.851 624.642 639.613 624.574 642.353C624.516 645.087 623.627 647.683 621.906 650.14C620.185 652.597 617.64 654.791 614.272 656.723C610.889 658.676 607.678 659.798 604.64 660.088C601.602 660.379 598.859 659.88 596.413 658.592C593.982 657.308 591.963 655.274 590.355 652.491ZM597.12 648.585C597.95 650.022 599.378 650.767 601.405 650.821C603.447 650.879 606.077 649.972 609.294 648.102C611.4 646.886 613 645.683 614.095 644.492C615.19 643.301 615.844 642.152 616.056 641.045C616.278 639.932 616.113 638.897 615.56 637.939C614.73 636.502 613.325 635.75 611.344 635.683C609.363 635.616 606.79 636.483 603.626 638.283C601.474 639.512 599.826 640.736 598.681 641.956C597.546 643.17 596.863 644.336 596.631 645.455C596.404 646.584 596.567 647.627 597.12 648.585ZM523.055 595.987L539.023 586.768L545.127 597.341L542.343 598.948L538.188 591.751L534.384 593.948L538.133 600.443L535.35 602.05L531.6 595.555L525.004 599.363L523.055 595.987ZM530.47 608.831L546.438 599.612L550.075 605.911C550.771 607.117 551.15 608.271 551.21 609.372C551.279 610.476 551.05 611.478 550.524 612.378C550.005 613.281 549.218 614.036 548.163 614.646C547.103 615.258 546.058 615.556 545.03 615.54C544.007 615.52 543.043 615.194 542.136 614.56C541.232 613.931 540.426 613.003 539.718 611.777L537.283 607.558L539.996 605.992L542.116 609.664C542.488 610.309 542.886 610.793 543.309 611.117C543.732 611.441 544.18 611.606 544.653 611.609C545.13 611.618 545.63 611.471 546.155 611.168C546.686 610.862 547.071 610.498 547.312 610.074C547.556 609.656 547.647 609.178 547.585 608.638C547.531 608.101 547.316 607.507 546.941 606.858L545.627 604.581L532.419 612.207L530.47 608.831ZM542.715 613.258L537.74 621.422L535.588 617.695L540.613 609.617L542.715 613.258ZM538.789 623.239L554.757 614.02L560.969 624.78L558.185 626.387L553.922 619.003L550.117 621.2L554.061 628.03L551.277 629.637L547.334 622.807L543.521 625.008L547.802 632.423L545.019 634.03L538.789 623.239ZM546.55 636.683L562.518 627.464L568.73 638.223L565.947 639.83L561.684 632.447L557.879 634.643L561.822 641.473L559.039 643.08L555.096 636.25L551.283 638.452L555.564 645.866L552.78 647.473L546.55 636.683ZM573.623 657.302C574.215 656.877 574.55 656.327 574.625 655.653C574.7 654.979 574.503 654.236 574.035 653.426C573.717 652.875 573.371 652.454 572.996 652.165C572.626 651.873 572.247 651.703 571.86 651.656C571.476 651.615 571.112 651.693 570.769 651.891C570.477 652.046 570.262 652.25 570.124 652.503C569.989 652.761 569.911 653.052 569.89 653.376C569.874 653.697 569.898 654.044 569.96 654.416C570.028 654.786 570.124 655.168 570.247 655.561L570.732 657.193C570.978 657.98 571.139 658.739 571.216 659.472C571.292 660.204 571.263 660.893 571.13 661.538C570.997 662.183 570.74 662.771 570.361 663.302C569.984 663.838 569.465 664.301 568.802 664.691C567.822 665.25 566.831 665.489 565.828 665.41C564.834 665.332 563.873 664.945 562.943 664.248C562.022 663.553 561.187 662.555 560.436 661.256C559.692 659.967 559.241 658.73 559.084 657.546C558.93 656.366 559.086 655.286 559.551 654.303C560.025 653.323 560.828 652.488 561.962 651.799L563.848 655.066C563.334 655.411 562.975 655.822 562.773 656.3C562.578 656.779 562.522 657.3 562.604 657.863C562.695 658.427 562.908 659.001 563.244 659.583C563.574 660.155 563.944 660.603 564.353 660.928C564.766 661.258 565.188 661.455 565.619 661.518C566.05 661.581 566.458 661.501 566.843 661.279C567.202 661.072 567.442 660.791 567.563 660.437C567.687 660.088 567.718 659.661 567.655 659.157C567.596 658.658 567.468 658.076 567.272 657.413L566.705 655.422C566.255 653.887 566.154 652.529 566.4 651.347C566.646 650.165 567.361 649.236 568.544 648.56C569.508 647.997 570.501 647.766 571.524 647.869C572.549 647.977 573.529 648.371 574.462 649.052C575.396 649.733 576.199 650.655 576.871 651.819C577.555 653.005 577.95 654.156 578.055 655.274C578.162 656.397 577.997 657.413 577.56 658.324C577.123 659.235 576.433 659.973 575.491 660.538L573.623 657.302ZM565.552 669.595L581.52 660.376L585.157 666.676C585.856 667.887 586.221 669.052 586.25 670.171C586.285 671.288 586.024 672.305 585.466 673.224C584.916 674.144 584.111 674.91 583.05 675.522C581.99 676.135 580.922 676.446 579.847 676.457C578.772 676.468 577.758 676.169 576.805 675.562C575.855 674.961 575.025 674.046 574.317 672.82L571.999 668.804L574.704 667.242L576.707 670.712C577.082 671.362 577.503 671.833 577.97 672.125C578.445 672.419 578.942 672.554 579.463 672.531C579.991 672.51 580.518 672.348 581.043 672.045C581.573 671.739 581.974 671.365 582.246 670.924C582.526 670.485 582.652 669.989 582.625 669.437C582.602 668.882 582.402 668.277 582.024 667.622L580.709 665.345L567.501 672.971L565.552 669.595ZM591.677 677.967L575.709 687.186L573.76 683.81L589.727 674.591L591.677 677.967ZM600.991 694.101L585.023 703.32L583.34 700.404L589.379 687.654L589.312 687.537L579.261 693.34L577.312 689.964L593.28 680.745L594.991 683.708L588.928 696.398L589.009 696.538L599.051 690.74L600.991 694.101ZM603.01 708.204C603.603 707.778 603.937 707.228 604.013 706.554C604.088 705.88 603.891 705.138 603.423 704.327C603.105 703.776 602.758 703.356 602.383 703.066C602.014 702.774 601.635 702.604 601.248 702.558C600.863 702.516 600.5 702.594 600.157 702.793C599.865 702.947 599.65 703.151 599.512 703.404C599.377 703.662 599.299 703.953 599.278 704.277C599.262 704.598 599.286 704.945 599.348 705.318C599.416 705.687 599.512 706.069 599.635 706.462L600.12 708.095C600.366 708.881 600.527 709.641 600.604 710.373C600.68 711.105 600.651 711.794 600.518 712.439C600.384 713.084 600.128 713.673 599.748 714.204C599.372 714.74 598.853 715.203 598.19 715.592C597.21 716.151 596.219 716.39 595.216 716.311C594.222 716.233 593.26 715.846 592.331 715.149C591.41 714.454 590.575 713.457 589.824 712.157C589.08 710.868 588.629 709.631 588.472 708.447C588.318 707.268 588.474 706.187 588.939 705.204C589.413 704.224 590.216 703.389 591.35 702.7L593.236 705.967C592.722 706.312 592.363 706.724 592.161 707.201C591.966 707.681 591.91 708.202 591.992 708.764C592.083 709.329 592.296 709.902 592.632 710.484C592.962 711.056 593.332 711.504 593.741 711.829C594.154 712.16 594.576 712.356 595.007 712.419C595.438 712.482 595.846 712.402 596.231 712.18C596.589 711.973 596.829 711.692 596.951 711.338C597.075 710.989 597.106 710.563 597.043 710.058C596.984 709.559 596.856 708.978 596.66 708.314L596.093 706.324C595.643 704.788 595.542 703.43 595.788 702.248C596.034 701.066 596.749 700.137 597.932 699.461C598.896 698.898 599.889 698.668 600.911 698.77C601.937 698.878 602.917 699.272 603.85 699.953C604.784 700.634 605.587 701.556 606.259 702.721C606.943 703.906 607.338 705.057 607.442 706.175C607.55 707.298 607.385 708.315 606.948 709.226C606.511 710.137 605.821 710.874 604.879 711.439L603.01 708.204Z" fill="#00A3FF"/>
<path d="M688.331 316.404C685.705 317.107 683.249 317.27 680.965 316.892C678.689 316.5 676.748 315.643 675.141 314.32C673.545 312.994 672.451 311.271 671.859 309.152L680.874 306.736C681.223 307.907 681.932 308.725 682.999 309.191C684.077 309.653 685.228 309.72 686.452 309.392C687.398 309.139 688.179 308.715 688.795 308.12C689.408 307.515 689.821 306.784 690.033 305.928C690.245 305.072 690.213 304.15 689.936 303.163C689.679 302.158 689.246 301.344 688.637 300.72C688.026 300.084 687.305 299.663 686.474 299.456C685.64 299.239 684.75 299.256 683.804 299.51C682.825 299.772 681.982 300.255 681.276 300.957C680.577 301.645 680.145 302.458 679.979 303.397L671.403 303.978L667.693 284.79L690.664 278.635L692.65 286.047L677.292 290.162L678.646 297.886L678.846 297.832C679.103 296.654 679.797 295.55 680.928 294.519C682.057 293.477 683.489 292.724 685.225 292.259C687.262 291.713 689.202 291.7 691.047 292.219C692.903 292.736 694.517 293.705 695.888 295.127C697.267 296.535 698.242 298.325 698.812 300.498C699.462 302.877 699.461 305.143 698.809 307.298C698.166 309.438 696.955 311.308 695.177 312.905C693.395 314.492 691.113 315.658 688.331 316.404ZM628.106 364.134L623.333 346.324L635.125 343.164L635.957 346.269L627.931 348.419L629.068 352.663L636.312 350.722L637.144 353.827L629.9 355.768L631.871 363.125L628.106 364.134ZM642.43 360.295L637.658 342.486L644.685 340.603C646.03 340.242 647.242 340.175 648.322 340.402C649.406 340.621 650.314 341.101 651.047 341.843C651.785 342.578 652.311 343.533 652.627 344.71C652.943 345.893 652.961 346.979 652.679 347.968C652.396 348.951 651.831 349.798 650.984 350.51C650.142 351.22 649.038 351.758 647.67 352.125L642.965 353.385L642.154 350.359L646.25 349.262C646.969 349.069 647.54 348.81 647.962 348.486C648.385 348.161 648.659 347.771 648.785 347.315C648.917 346.857 648.905 346.335 648.748 345.749C648.59 345.158 648.337 344.691 647.991 344.349C647.65 344.006 647.211 343.794 646.674 343.714C646.141 343.627 645.513 343.68 644.788 343.875L642.249 344.555L646.196 359.286L642.43 360.295ZM649.877 349.613L656.475 356.532L652.318 357.646L645.816 350.702L649.877 349.613ZM658.501 355.989L653.729 338.179L665.729 334.964L666.561 338.068L658.326 340.275L659.463 344.519L667.081 342.478L667.913 345.582L660.295 347.623L661.434 351.876L669.705 349.66L670.536 352.764L658.501 355.989ZM673.495 351.971L668.723 334.162L680.724 330.946L681.556 334.051L673.32 336.257L674.458 340.501L682.075 338.46L682.907 341.564L675.289 343.606L676.429 347.858L684.699 345.642L685.531 348.747L673.495 351.971ZM700.419 331.159C700.162 330.476 699.717 330.011 699.085 329.764C698.454 329.517 697.686 329.514 696.781 329.757C696.167 329.921 695.671 330.147 695.295 330.435C694.916 330.716 694.655 331.038 694.509 331.4C694.37 331.76 694.351 332.132 694.454 332.515C694.528 332.837 694.669 333.097 694.878 333.296C695.092 333.493 695.353 333.644 695.66 333.748C695.966 333.846 696.307 333.913 696.684 333.949C697.058 333.979 697.452 333.986 697.863 333.969L699.566 333.922C700.389 333.888 701.165 333.929 701.892 334.045C702.619 334.161 703.276 334.367 703.865 334.662C704.454 334.958 704.956 335.358 705.37 335.862C705.791 336.365 706.103 336.986 706.308 337.727C706.594 338.818 706.569 339.838 706.233 340.785C705.901 341.726 705.278 342.554 704.364 343.272C703.454 343.981 702.275 344.53 700.825 344.919C699.388 345.304 698.076 345.419 696.892 345.264C695.713 345.108 694.709 344.678 693.88 343.974C693.056 343.263 692.457 342.271 692.085 340.997L695.729 340.021C695.929 340.607 696.234 341.06 696.643 341.379C697.056 341.691 697.544 341.88 698.109 341.946C698.678 342.005 699.287 341.948 699.936 341.774C700.574 341.603 701.103 341.362 701.522 341.05C701.948 340.737 702.247 340.381 702.419 339.98C702.592 339.58 702.621 339.165 702.506 338.736C702.398 338.336 702.189 338.032 701.879 337.823C701.574 337.613 701.17 337.473 700.666 337.402C700.168 337.331 699.574 337.304 698.883 337.321L696.813 337.354C695.214 337.391 693.875 337.137 692.797 336.594C691.719 336.05 691.007 335.119 690.66 333.801C690.366 332.725 690.4 331.706 690.764 330.744C691.134 329.782 691.768 328.938 692.667 328.212C693.566 327.486 694.665 326.95 695.964 326.602C697.286 326.247 698.5 326.164 699.607 326.353C700.719 326.539 701.659 326.961 702.426 327.62C703.192 328.278 703.726 329.135 704.028 330.192L700.419 331.159ZM710.204 342.135L705.432 324.326L712.458 322.443C713.809 322.081 715.029 322.031 716.118 322.292C717.206 322.547 718.121 323.063 718.863 323.84C719.61 324.609 720.142 325.585 720.459 326.768C720.775 327.95 720.8 329.062 720.532 330.103C720.264 331.144 719.714 332.047 718.881 332.811C718.054 333.573 716.956 334.137 715.588 334.504L711.109 335.704L710.301 332.686L714.17 331.65C714.895 331.455 715.459 331.171 715.862 330.796C716.269 330.413 716.528 329.968 716.641 329.459C716.757 328.943 716.737 328.392 716.58 327.807C716.422 327.216 716.164 326.731 715.809 326.355C715.457 325.97 715.011 325.72 714.47 325.604C713.928 325.482 713.292 325.519 712.561 325.715L710.022 326.395L713.969 341.126L710.204 342.135ZM725.053 319.068L729.825 336.878L726.059 337.887L721.287 320.077L725.053 319.068ZM743.047 314.247L747.819 332.056L744.567 332.928L733.815 323.795L733.685 323.83L736.688 335.039L732.923 336.048L728.151 318.238L731.455 317.353L742.144 326.494L742.3 326.452L739.299 315.251L743.047 314.247ZM757.192 315.946C756.935 315.263 756.49 314.798 755.858 314.551C755.227 314.304 754.459 314.302 753.554 314.544C752.94 314.709 752.444 314.935 752.068 315.222C751.689 315.504 751.428 315.826 751.282 316.188C751.143 316.548 751.124 316.92 751.227 317.302C751.301 317.624 751.442 317.885 751.651 318.084C751.865 318.281 752.126 318.432 752.433 318.536C752.739 318.634 753.08 318.701 753.457 318.737C753.831 318.767 754.225 318.773 754.636 318.756L756.339 318.71C757.162 318.676 757.938 318.717 758.665 318.833C759.392 318.948 760.049 319.154 760.638 319.45C761.227 319.746 761.729 320.146 762.143 320.65C762.564 321.152 762.876 321.774 763.081 322.515C763.367 323.606 763.342 324.626 763.006 325.573C762.674 326.513 762.051 327.342 761.137 328.059C760.227 328.769 759.048 329.318 757.598 329.706C756.161 330.092 754.849 330.207 753.665 330.052C752.486 329.896 751.482 329.466 750.653 328.762C749.829 328.051 749.23 327.058 748.858 325.785L752.502 324.809C752.702 325.395 753.007 325.848 753.416 326.167C753.829 326.479 754.317 326.668 754.882 326.734C755.451 326.793 756.06 326.735 756.709 326.561C757.347 326.39 757.876 326.149 758.295 325.838C758.721 325.525 759.02 325.168 759.192 324.768C759.365 324.368 759.394 323.953 759.279 323.524C759.171 323.124 758.962 322.82 758.652 322.611C758.347 322.401 757.943 322.26 757.439 322.19C756.941 322.118 756.347 322.091 755.656 322.109L753.586 322.141C751.987 322.178 750.648 321.925 749.57 321.381C748.492 320.837 747.78 319.907 747.433 318.589C747.139 317.512 747.173 316.493 747.537 315.532C747.907 314.569 748.541 313.725 749.44 313C750.339 312.274 751.438 311.737 752.737 311.389C754.059 311.035 755.273 310.952 756.38 311.14C757.492 311.327 758.432 311.749 759.199 312.407C759.965 313.066 760.499 313.923 760.801 314.979L757.192 315.946Z" fill="#00A3FF"/>
<path d="M273.046 616.103L277.935 620.991L276.321 638.051C276.216 639.183 276.167 640.193 276.175 641.081C276.183 641.986 276.309 642.796 276.554 643.513C276.79 644.238 277.201 644.894 277.788 645.481C278.432 646.124 279.12 646.536 279.853 646.715C280.578 646.903 281.303 646.878 282.028 646.642C282.762 646.414 283.442 645.986 284.069 645.359C284.697 644.731 285.124 644.051 285.352 643.318C285.572 642.593 285.568 641.855 285.34 641.106C285.112 640.356 284.648 639.631 283.947 638.931L290.4 632.478C292.159 634.238 293.28 636.148 293.76 638.21C294.241 640.271 294.102 642.365 293.345 644.491C292.587 646.617 291.239 648.65 289.3 650.589C287.296 652.593 285.238 654.007 283.128 654.83C281.018 655.669 278.986 655.909 277.03 655.551C275.067 655.2 273.307 654.247 271.751 652.691C270.79 651.73 270.032 650.573 269.478 649.22C268.932 647.876 268.602 646.112 268.488 643.929C268.374 641.745 268.476 638.906 268.794 635.411L269.185 631.11L269.038 630.963L259.262 640.739L253.836 635.313L273.046 616.103ZM240.436 648.029C242.359 646.106 244.403 644.737 246.571 643.923C248.738 643.124 250.848 642.896 252.901 643.238C254.946 643.589 256.754 644.534 258.327 646.074L251.728 652.673C250.84 651.834 249.817 651.479 248.66 651.609C247.495 651.748 246.465 652.265 245.569 653.161C244.876 653.854 244.412 654.612 244.175 655.435C243.947 656.266 243.955 657.105 244.2 657.952C244.444 658.799 244.933 659.581 245.666 660.298C246.391 661.04 247.173 661.528 248.013 661.765C248.86 662.009 249.695 662.013 250.518 661.777C251.349 661.549 252.111 661.089 252.803 660.396C253.52 659.679 254.009 658.84 254.27 657.879C254.53 656.934 254.498 656.013 254.172 655.117L261.309 650.326L274.116 665.089L257.3 681.904L251.874 676.478L263.117 665.235L258.082 659.223L257.936 659.37C258.302 660.518 258.253 661.822 257.789 663.28C257.333 664.747 256.469 666.115 255.198 667.386C253.707 668.877 252.033 669.859 250.176 670.331C248.31 670.812 246.428 670.779 244.53 670.234C242.632 669.704 240.892 668.641 239.312 667.044C237.56 665.309 236.428 663.345 235.914 661.154C235.401 658.978 235.515 656.754 236.256 654.481C237.006 652.216 238.399 650.066 240.436 648.029ZM279.851 565.457L292.889 578.495L284.257 587.127L281.984 584.854L287.86 578.979L284.753 575.872L279.45 581.175L277.178 578.902L282.481 573.599L277.095 568.214L279.851 565.457ZM269.365 575.944L282.403 588.981L277.259 594.125C276.274 595.11 275.258 595.774 274.21 596.118C273.161 596.47 272.134 596.508 271.128 596.232C270.123 595.965 269.189 595.4 268.327 594.539C267.462 593.673 266.903 592.741 266.653 591.744C266.407 590.751 266.473 589.734 266.85 588.695C267.224 587.659 267.911 586.641 268.913 585.639L272.357 582.195L274.572 584.41L271.574 587.409C271.048 587.935 270.683 588.444 270.479 588.937C270.275 589.429 270.233 589.904 270.352 590.363C270.466 590.825 270.738 591.271 271.167 591.699C271.599 592.132 272.051 592.41 272.523 592.533C272.989 592.661 273.475 592.625 273.98 592.425C274.485 592.234 275.003 591.873 275.534 591.343L277.393 589.484L266.608 578.7L269.365 575.944ZM268.257 588.918L259.084 586.225L262.127 583.182L271.23 585.945L268.257 588.918ZM257.601 587.708L270.638 600.746L261.853 609.531L259.58 607.258L265.609 601.229L262.502 598.123L256.926 603.699L254.653 601.427L260.23 595.85L257.117 592.737L251.063 598.791L248.79 596.519L257.601 587.708ZM246.624 598.685L259.662 611.722L250.876 620.507L248.604 618.235L254.632 612.206L251.526 609.099L245.949 614.676L243.676 612.403L249.253 606.827L246.14 603.714L240.086 609.768L237.813 607.495L246.624 598.685ZM233.714 630.171C234.278 630.634 234.895 630.814 235.566 630.712C236.237 630.61 236.903 630.228 237.565 629.566C238.015 629.116 238.331 628.673 238.514 628.236C238.7 627.803 238.766 627.393 238.711 627.007C238.651 626.625 238.482 626.294 238.202 626.014C237.977 625.772 237.724 625.617 237.444 625.549C237.16 625.486 236.858 625.486 236.54 625.549C236.226 625.617 235.897 625.73 235.553 625.887C235.214 626.048 234.87 626.239 234.522 626.46L233.071 627.351C232.375 627.792 231.683 628.145 230.995 628.408C230.308 628.671 229.635 628.821 228.977 628.86C228.319 628.898 227.685 628.802 227.074 628.573C226.458 628.348 225.877 627.966 225.329 627.427C224.536 626.625 224.048 625.73 223.865 624.741C223.683 623.76 223.808 622.731 224.241 621.653C224.674 620.584 225.421 619.519 226.482 618.458C227.534 617.405 228.612 616.65 229.716 616.191C230.815 615.737 231.899 615.608 232.969 615.803C234.038 616.007 235.053 616.567 236.012 617.484L233.344 620.151C232.877 619.743 232.387 619.504 231.874 619.432C231.36 619.368 230.842 619.449 230.32 619.673C229.798 619.907 229.3 620.261 228.824 620.737C228.358 621.203 228.02 621.677 227.812 622.156C227.6 622.64 227.519 623.098 227.57 623.531C227.621 623.964 227.804 624.338 228.118 624.652C228.411 624.945 228.744 625.104 229.117 625.129C229.486 625.159 229.907 625.078 230.378 624.887C230.845 624.701 231.373 624.427 231.963 624.066L233.739 623.003C235.106 622.171 236.392 621.721 237.597 621.653C238.802 621.585 239.884 622.035 240.844 623.003C241.637 623.788 242.117 624.688 242.282 625.702C242.444 626.721 242.316 627.769 241.9 628.847C241.484 629.925 240.801 630.939 239.85 631.89C238.883 632.858 237.873 633.537 236.82 633.927C235.763 634.322 234.738 634.426 233.745 634.239C232.752 634.052 231.861 633.577 231.072 632.813L233.714 630.171ZM219.751 625.557L232.789 638.595L227.645 643.739C226.656 644.728 225.625 645.381 224.551 645.699C223.482 646.022 222.431 646.033 221.4 645.731C220.369 645.438 219.42 644.859 218.554 643.993C217.689 643.128 217.111 642.177 216.823 641.141C216.534 640.106 216.56 639.049 216.899 637.971C217.234 636.897 217.903 635.86 218.905 634.858L222.183 631.58L224.392 633.789L221.559 636.621C221.029 637.152 220.683 637.68 220.521 638.207C220.36 638.741 220.358 639.257 220.515 639.754C220.672 640.259 220.965 640.725 221.394 641.154C221.827 641.587 222.291 641.878 222.788 642.026C223.284 642.183 223.796 642.177 224.322 642.007C224.853 641.842 225.385 641.491 225.92 640.957L227.779 639.098L216.995 628.314L219.751 625.557ZM218.425 652.958L205.388 639.921L208.144 637.164L221.182 650.202L218.425 652.958ZM205.253 666.131L192.215 653.094L194.596 650.713L208.474 653.246L208.569 653.151L200.363 644.945L203.12 642.189L216.158 655.226L213.738 657.645L199.911 655.073L199.797 655.188L207.996 663.387L205.253 666.131ZM192.153 671.732C192.717 672.194 193.335 672.375 194.005 672.273C194.676 672.171 195.342 671.789 196.004 671.127C196.454 670.677 196.77 670.234 196.953 669.797C197.14 669.364 197.205 668.954 197.15 668.568C197.091 668.186 196.921 667.855 196.641 667.575C196.416 667.333 196.163 667.178 195.883 667.11C195.599 667.046 195.298 667.046 194.979 667.11C194.665 667.178 194.336 667.29 193.993 667.447C193.653 667.609 193.309 667.8 192.961 668.02L191.51 668.912C190.814 669.353 190.122 669.705 189.435 669.968C188.747 670.232 188.074 670.382 187.416 670.42C186.759 670.459 186.124 670.363 185.513 670.134C184.898 669.909 184.316 669.527 183.769 668.988C182.975 668.186 182.487 667.29 182.305 666.302C182.122 665.321 182.247 664.292 182.68 663.214C183.113 662.145 183.86 661.079 184.921 660.018C185.974 658.966 187.051 658.21 188.155 657.752C189.254 657.298 190.338 657.168 191.408 657.364C192.477 657.567 193.492 658.128 194.451 659.044L191.784 661.712C191.317 661.304 190.827 661.064 190.313 660.992C189.8 660.929 189.282 661.009 188.76 661.234C188.238 661.468 187.739 661.822 187.264 662.297C186.797 662.764 186.459 663.237 186.251 663.717C186.039 664.201 185.959 664.659 186.01 665.092C186.061 665.525 186.243 665.898 186.557 666.212C186.85 666.505 187.183 666.664 187.557 666.69C187.926 666.72 188.346 666.639 188.817 666.448C189.284 666.261 189.812 665.987 190.402 665.627L192.178 664.564C193.545 663.732 194.831 663.282 196.036 663.214C197.241 663.146 198.324 663.596 199.283 664.564C200.076 665.349 200.556 666.249 200.722 667.263C200.883 668.281 200.755 669.33 200.34 670.408C199.924 671.486 199.24 672.5 198.29 673.451C197.322 674.418 196.312 675.097 195.259 675.488C194.203 675.882 193.178 675.986 192.185 675.8C191.192 675.613 190.3 675.138 189.511 674.374L192.153 671.732Z" fill="#00A3FF"/>
<path d="M156.029 338.444C158.655 339.148 160.863 340.234 162.652 341.704C164.427 343.181 165.68 344.895 166.41 346.844C167.129 348.79 167.215 350.829 166.667 352.96L157.653 350.545C157.936 349.356 157.731 348.294 157.04 347.357C156.338 346.417 155.374 345.783 154.15 345.455C153.204 345.202 152.316 345.179 151.485 345.385C150.651 345.603 149.929 346.03 149.317 346.665C148.705 347.301 148.273 348.115 148.018 349.109C147.739 350.107 147.706 351.029 147.921 351.874C148.133 352.73 148.547 353.455 149.163 354.049C149.777 354.655 150.556 355.085 151.502 355.338C152.481 355.6 153.452 355.604 154.415 355.349C155.364 355.103 156.145 354.614 156.758 353.884L164.475 357.669L158.094 376.142L135.124 369.987L137.11 362.575L152.468 366.69L155.158 359.323L154.957 359.27C154.146 360.162 152.992 360.771 151.497 361.098C149.999 361.436 148.382 361.373 146.646 360.907C144.609 360.362 142.922 359.403 141.584 358.03C140.235 356.655 139.322 355.009 138.846 353.092C138.355 351.183 138.406 349.145 138.999 346.978C139.626 344.593 140.76 342.631 142.401 341.091C144.029 339.559 146.012 338.545 148.351 338.051C150.687 337.568 153.246 337.699 156.029 338.444ZM123.506 329.229C126.608 330.072 129.097 331.508 130.975 333.538C132.852 335.568 134.044 338.088 134.549 341.098C135.055 344.108 134.8 347.487 133.784 351.234C132.764 354.993 131.297 358.023 129.38 360.325C127.452 362.623 125.18 364.155 122.566 364.922C119.94 365.685 117.074 365.651 113.969 364.819C110.864 363.987 108.367 362.579 106.477 360.593C104.585 358.619 103.379 356.155 102.858 353.2C102.338 350.246 102.585 346.895 103.602 343.147C104.612 339.375 106.089 336.311 108.032 333.957C109.975 331.603 112.267 330.016 114.908 329.197C117.535 328.386 120.401 328.397 123.506 329.229ZM121.484 336.774C119.881 336.345 118.344 336.827 116.873 338.222C115.388 339.626 114.169 342.126 113.217 345.724C112.588 348.072 112.307 350.054 112.375 351.671C112.443 353.287 112.793 354.562 113.426 355.495C114.056 356.439 114.905 357.054 115.973 357.341C117.576 357.77 119.101 357.308 120.549 355.954C121.997 354.601 123.203 352.169 124.168 348.658C124.82 346.268 125.12 344.237 125.067 342.565C125.011 340.904 124.67 339.596 124.043 338.641C123.405 337.683 122.552 337.06 121.484 336.774ZM214.881 322.621L210.109 340.431L198.317 337.271L199.149 334.167L207.175 336.317L208.313 332.074L201.069 330.133L201.9 327.028L209.144 328.969L211.116 321.612L214.881 322.621ZM200.556 318.783L195.784 336.592L188.758 334.71C187.413 334.349 186.329 333.801 185.507 333.065C184.678 332.334 184.132 331.463 183.868 330.454C183.596 329.449 183.618 328.359 183.934 327.182C184.25 325.999 184.778 325.05 185.517 324.334C186.254 323.625 187.167 323.173 188.256 322.981C189.34 322.786 190.566 322.872 191.934 323.239L196.638 324.5L195.828 327.526L191.732 326.428C191.013 326.236 190.389 326.174 189.861 326.244C189.333 326.314 188.9 326.515 188.562 326.847C188.219 327.177 187.969 327.635 187.812 328.221C187.654 328.812 187.639 329.343 187.768 329.812C187.891 330.28 188.165 330.683 188.59 331.021C189.008 331.362 189.58 331.631 190.304 331.825L192.844 332.505L196.791 317.774L200.556 318.783ZM188.767 324.31L186.512 315.02L190.669 316.133L192.828 325.399L188.767 324.31ZM184.486 314.477L179.714 332.286L167.713 329.071L168.545 325.966L176.78 328.173L177.917 323.929L170.299 321.888L171.131 318.783L178.749 320.825L179.888 316.572L171.618 314.356L172.45 311.252L184.486 314.477ZM169.491 310.459L164.719 328.269L152.719 325.053L153.55 321.949L161.786 324.155L162.923 319.911L155.305 317.87L156.137 314.766L163.755 316.807L164.894 312.554L156.624 310.339L157.456 307.234L169.491 310.459ZM135.768 315.021C135.65 315.742 135.802 316.367 136.226 316.896C136.649 317.426 137.313 317.812 138.218 318.055C138.832 318.219 139.374 318.271 139.844 318.211C140.312 318.156 140.7 318.008 141.007 317.767C141.308 317.525 141.51 317.212 141.612 316.83C141.709 316.514 141.717 316.218 141.636 315.941C141.549 315.663 141.398 315.402 141.184 315.158C140.968 314.92 140.706 314.692 140.398 314.473C140.089 314.259 139.752 314.057 139.387 313.866L137.889 313.055C137.159 312.672 136.508 312.249 135.936 311.786C135.365 311.322 134.898 310.815 134.536 310.264C134.174 309.713 133.939 309.116 133.832 308.472C133.719 307.827 133.759 307.132 133.952 306.389C134.25 305.3 134.782 304.43 135.547 303.777C136.305 303.129 137.258 302.723 138.408 302.559C139.551 302.399 140.847 302.513 142.296 302.902C143.734 303.287 144.927 303.843 145.876 304.569C146.819 305.294 147.473 306.168 147.839 307.192C148.197 308.22 148.219 309.379 147.905 310.668L144.261 309.692C144.381 309.084 144.343 308.539 144.149 308.058C143.947 307.582 143.619 307.174 143.163 306.834C142.7 306.499 142.143 306.244 141.494 306.07C140.856 305.899 140.278 305.844 139.759 305.903C139.233 305.961 138.796 306.121 138.447 306.381C138.097 306.642 137.865 306.987 137.75 307.416C137.643 307.816 137.672 308.184 137.836 308.52C137.995 308.855 138.275 309.178 138.676 309.491C139.071 309.802 139.573 310.122 140.18 310.453L141.989 311.459C143.392 312.227 144.425 313.116 145.086 314.126C145.748 315.135 145.899 316.298 145.541 317.612C145.258 318.692 144.718 319.557 143.923 320.208C143.121 320.857 142.15 321.27 141.008 321.449C139.867 321.628 138.647 321.544 137.348 321.196C136.026 320.841 134.933 320.306 134.069 319.59C133.199 318.872 132.596 318.036 132.261 317.083C131.926 316.13 131.892 315.12 132.159 314.054L135.768 315.021ZM132.783 300.623L128.011 318.433L120.984 316.55C119.633 316.188 118.552 315.622 117.739 314.851C116.925 314.086 116.391 313.182 116.136 312.138C115.874 311.098 115.901 309.987 116.218 308.804C116.535 307.622 117.07 306.647 117.822 305.879C118.575 305.111 119.503 304.605 120.606 304.36C121.704 304.113 122.936 304.173 124.305 304.54L128.783 305.74L127.975 308.758L124.105 307.721C123.38 307.526 122.75 307.491 122.213 307.615C121.669 307.742 121.222 307.998 120.87 308.383C120.511 308.771 120.254 309.258 120.097 309.844C119.938 310.435 119.919 310.983 120.038 311.487C120.151 311.996 120.412 312.435 120.822 312.806C121.231 313.183 121.8 313.469 122.531 313.665L125.07 314.345L129.017 299.614L132.783 300.623ZM108.39 313.175L113.162 295.365L116.927 296.374L112.155 314.184L108.39 313.175ZM90.3952 308.354L95.1674 290.544L98.4197 291.415L103.164 304.701L103.295 304.736L106.298 293.526L110.064 294.535L105.292 312.345L101.987 311.46L97.301 298.199L97.1445 298.157L94.1433 309.358L90.3952 308.354ZM78.9952 299.809C78.8768 300.529 79.0293 301.154 79.4528 301.684C79.8763 302.214 80.5403 302.6 81.4447 302.842C82.0592 303.007 82.6014 303.059 83.0712 302.998C83.5394 302.944 83.927 302.796 84.2339 302.555C84.535 302.313 84.7368 302 84.8393 301.617C84.9363 301.302 84.9442 301.006 84.863 300.729C84.7759 300.451 84.6253 300.19 84.411 299.946C84.1952 299.708 83.9333 299.479 83.6254 299.26C83.316 299.047 82.9787 298.845 82.6136 298.654L81.116 297.842C80.3858 297.46 79.7348 297.037 79.1632 296.573C78.5915 296.109 78.1247 295.602 77.7627 295.052C77.4007 294.501 77.1662 293.904 77.0591 293.26C76.9462 292.615 76.9863 291.92 77.1793 291.176C77.4772 290.088 78.0086 289.218 78.7738 288.565C79.5315 287.917 80.4854 287.511 81.6354 287.347C82.7781 287.187 84.0741 287.301 85.5235 287.689C86.9612 288.075 88.1545 288.631 89.1031 289.357C90.046 290.082 90.7003 290.956 91.066 291.98C91.4243 293.008 91.4463 294.167 91.132 295.456L87.4883 294.479C87.6077 293.871 87.5703 293.327 87.376 292.846C87.1744 292.37 86.8456 291.961 86.3898 291.622C85.9267 291.286 85.3704 291.032 84.7211 290.858C84.0834 290.687 83.5049 290.631 82.9856 290.691C82.4605 290.749 82.0232 290.909 81.6738 291.169C81.3244 291.43 81.0922 291.774 80.9772 292.203C80.87 292.603 80.8988 292.972 81.0635 293.308C81.2223 293.642 81.5023 293.966 81.9032 294.278C82.2983 294.589 82.7996 294.91 83.407 295.241L85.2157 296.247C86.6194 297.015 87.652 297.903 88.3134 298.913C88.9749 299.923 89.1264 301.085 88.768 302.4C88.4848 303.48 87.9454 304.345 87.1498 304.995C86.3483 305.644 85.3768 306.058 84.2353 306.237C83.0938 306.416 81.8737 306.331 80.5751 305.983C79.2532 305.629 78.1601 305.094 77.2957 304.378C76.4255 303.66 75.823 302.824 75.4882 301.871C75.1534 300.917 75.1194 299.908 75.3863 298.842L78.9952 299.809Z" fill="#00A3FF"/>
<path d="M381.194 160.894L415 160.894L415 170.072L389.645 170.072L389.645 170.27L394.069 177.665L386.278 177.665L381.194 169.345L381.194 160.894ZM415.924 139.229C415.913 142.299 415.204 144.951 413.795 147.185C412.386 149.419 410.356 151.141 407.704 152.352C405.052 153.562 401.871 154.162 398.163 154.151C394.443 154.14 391.285 153.535 388.688 152.335C386.091 151.125 384.116 149.408 382.762 147.185C381.408 144.951 380.732 142.299 380.732 139.229C380.732 136.158 381.414 133.506 382.778 131.272C384.132 129.038 386.107 127.316 388.704 126.106C391.302 124.895 394.454 124.295 398.163 124.306C401.893 124.306 405.085 124.912 407.737 126.122C410.389 127.333 412.419 129.055 413.828 131.289C415.226 133.512 415.924 136.158 415.924 139.229ZM408.463 139.229C408.463 137.644 407.638 136.345 405.987 135.333C404.326 134.31 401.717 133.803 398.163 133.814C395.841 133.814 393.943 134.045 392.468 134.508C390.993 134.97 389.904 135.608 389.2 136.422C388.484 137.237 388.127 138.172 388.127 139.229C388.127 140.813 388.93 142.106 390.537 143.108C392.143 144.109 394.685 144.621 398.163 144.643C400.529 144.654 402.477 144.428 404.006 143.966C405.525 143.504 406.647 142.866 407.374 142.051C408.1 141.226 408.463 140.285 408.463 139.229ZM415.924 105.274C415.913 108.344 415.204 110.996 413.795 113.23C412.386 115.464 410.356 117.186 407.704 118.397C405.052 119.607 401.871 120.207 398.163 120.196C394.443 120.185 391.285 119.58 388.688 118.38C386.091 117.17 384.116 115.453 382.762 113.23C381.408 110.996 380.732 108.344 380.732 105.274C380.732 102.203 381.414 99.5514 382.778 97.3174C384.132 95.0835 386.107 93.3613 388.704 92.1508C391.302 90.9403 394.454 90.3405 398.163 90.3515C401.893 90.3515 405.085 90.9568 407.737 92.1673C410.389 93.3778 412.419 95.1 413.828 97.3339C415.226 99.5569 415.924 102.203 415.924 105.274ZM408.463 105.274C408.463 103.689 407.638 102.391 405.987 101.378C404.326 100.355 401.717 99.8485 398.163 99.8595C395.841 99.8595 393.943 100.091 392.468 100.553C390.993 101.015 389.904 101.653 389.2 102.468C388.484 103.282 388.127 104.217 388.127 105.274C388.127 106.858 388.93 108.151 390.537 109.153C392.143 110.154 394.685 110.666 398.163 110.688C400.529 110.699 402.477 110.473 404.006 110.011C405.525 109.549 406.647 108.911 407.374 108.096C408.1 107.271 408.463 106.33 408.463 105.274ZM445 201.129L427.389 201.129L427.389 189.469L430.459 189.469L430.459 197.406L434.655 197.406L434.655 190.243L437.725 190.243L437.725 197.406L445 197.406L445 201.129ZM445 186.964L427.389 186.964L427.389 180.016C427.389 178.686 427.627 177.551 428.103 176.611C428.573 175.665 429.241 174.946 430.107 174.453C430.966 173.954 431.978 173.705 433.142 173.705C434.311 173.705 435.318 173.957 436.16 174.461C436.997 174.966 437.639 175.697 438.086 176.654C438.534 177.606 438.757 178.758 438.757 180.111L438.757 184.763L435.765 184.763L435.765 180.713C435.765 180.002 435.667 179.411 435.472 178.941C435.277 178.471 434.985 178.122 434.595 177.892C434.205 177.657 433.721 177.54 433.142 177.54C432.557 177.54 432.064 177.657 431.663 177.892C431.262 178.122 430.958 178.474 430.752 178.95C430.539 179.42 430.433 180.013 430.433 180.73L430.433 183.241L445 183.241L445 186.964ZM436.986 177.454L445 173.077L445 177.187L436.986 181.47L436.986 177.454ZM445 171.073L427.389 171.073L427.389 159.207L430.459 159.207L430.459 167.35L434.655 167.35L434.655 159.817L437.725 159.817L437.725 167.35L441.93 167.35L441.93 159.172L445 159.172L445 171.073ZM445 156.247L427.389 156.247L427.389 144.38L430.459 144.38L430.459 152.523L434.655 152.523L434.655 144.991L437.725 144.991L437.725 152.523L441.93 152.523L441.93 144.346L445 144.346L445 156.247ZM432.454 126.262C431.76 126.331 431.222 126.626 430.837 127.148C430.453 127.669 430.261 128.377 430.261 129.272C430.261 129.879 430.347 130.392 430.519 130.811C430.686 131.229 430.918 131.55 431.216 131.774C431.514 131.992 431.852 132.101 432.231 132.101C432.546 132.112 432.821 132.046 433.056 131.903C433.291 131.754 433.495 131.55 433.667 131.292C433.833 131.034 433.979 130.736 434.105 130.398C434.225 130.06 434.329 129.699 434.415 129.315L434.793 127.732C434.965 126.964 435.194 126.259 435.481 125.617C435.768 124.975 436.12 124.419 436.539 123.949C436.957 123.479 437.45 123.115 438.018 122.857C438.585 122.593 439.236 122.458 439.97 122.453C441.047 122.458 441.982 122.734 442.773 123.278C443.558 123.817 444.169 124.597 444.604 125.617C445.034 126.632 445.249 127.856 445.249 129.289C445.249 130.711 445.032 131.949 444.596 133.004C444.16 134.053 443.515 134.872 442.661 135.463C441.801 136.048 440.738 136.354 439.471 136.383L439.471 132.78C440.061 132.74 440.554 132.571 440.95 132.273C441.34 131.969 441.635 131.565 441.836 131.06C442.03 130.55 442.128 129.974 442.128 129.332C442.128 128.701 442.036 128.154 441.853 127.689C441.669 127.219 441.414 126.855 441.087 126.597C440.761 126.339 440.385 126.21 439.961 126.21C439.565 126.21 439.233 126.328 438.964 126.563C438.694 126.792 438.465 127.131 438.276 127.578C438.086 128.019 437.914 128.561 437.76 129.203L437.278 131.12C436.917 132.605 436.352 133.778 435.584 134.637C434.816 135.497 433.781 135.924 432.48 135.919C431.414 135.924 430.482 135.641 429.685 135.067C428.888 134.488 428.266 133.694 427.819 132.685C427.372 131.676 427.149 130.53 427.149 129.246C427.149 127.939 427.372 126.798 427.819 125.823C428.266 124.843 428.888 124.081 429.685 123.536C430.482 122.992 431.405 122.711 432.454 122.693L432.454 126.262ZM445 119.948L427.389 119.948L427.389 113C427.389 111.665 427.644 110.527 428.155 109.586C428.659 108.646 429.361 107.93 430.261 107.437C431.156 106.938 432.188 106.689 433.357 106.689C434.526 106.689 435.558 106.941 436.453 107.445C437.347 107.95 438.043 108.681 438.542 109.638C439.041 110.59 439.29 111.742 439.29 113.095L439.29 117.523L436.306 117.523L436.306 113.697C436.306 112.98 436.183 112.39 435.937 111.925C435.684 111.455 435.338 111.106 434.896 110.876C434.449 110.641 433.936 110.524 433.357 110.524C432.772 110.524 432.262 110.641 431.826 110.876C431.385 111.106 431.044 111.455 430.803 111.925C430.557 112.395 430.433 112.992 430.433 113.714L430.433 116.225L445 116.225L445 119.948ZM427.389 100.547L445 100.547L445 104.27L427.389 104.27L427.389 100.547ZM427.389 82.7534L445 82.7534L445 85.9694L433.916 93.6311L433.916 93.7601L445 93.7601L445 97.4834L427.389 97.4834L427.389 94.2158L438.465 86.6143L438.465 86.4595L427.389 86.4595L427.389 82.7534ZM432.454 70.1237C431.76 70.1924 431.222 70.4877 430.837 71.0093C430.453 71.531 430.261 72.239 430.261 73.1333C430.261 73.741 430.347 74.254 430.519 74.6725C430.686 75.091 430.918 75.412 431.216 75.6356C431.514 75.8534 431.852 75.9624 432.231 75.9624C432.546 75.9738 432.821 75.9079 433.056 75.7646C433.291 75.6155 433.495 75.412 433.667 75.1541C433.833 74.8961 433.979 74.598 434.105 74.2598C434.225 73.9215 434.329 73.5604 434.415 73.1763L434.793 71.5941C434.965 70.8259 435.194 70.1208 435.481 69.4787C435.768 68.8367 436.12 68.2806 436.539 67.8105C436.957 67.3405 437.45 66.9764 438.018 66.7185C438.585 66.4548 439.236 66.32 439.97 66.3143C441.047 66.32 441.982 66.5952 442.773 67.1398C443.558 67.6787 444.169 68.4583 444.604 69.4787C445.034 70.4934 445.249 71.7173 445.249 73.1505C445.249 74.5722 445.032 75.8104 444.596 76.8652C444.16 77.9143 443.515 78.7341 442.661 79.3245C441.801 79.9093 440.738 80.216 439.471 80.2446L439.471 76.6417C440.061 76.6015 440.554 76.4324 440.95 76.1343C441.34 75.8305 441.635 75.4264 441.836 74.9219C442.03 74.4117 442.128 73.8355 442.128 73.1935C442.128 72.5629 442.036 72.0154 441.853 71.5511C441.669 71.081 441.414 70.717 441.087 70.459C440.761 70.201 440.385 70.0721 439.961 70.0721C439.565 70.0721 439.233 70.1896 438.964 70.4246C438.694 70.6539 438.465 70.9922 438.276 71.4393C438.086 71.8807 437.914 72.4224 437.76 73.0645L437.278 74.9821C436.917 76.4668 436.352 77.6392 435.584 78.499C434.816 79.3589 433.781 79.786 432.48 79.7803C431.414 79.786 430.482 79.5023 429.685 78.929C428.888 78.35 428.266 77.556 427.819 76.5471C427.372 75.5381 427.149 74.3916 427.149 73.1075C427.149 71.8005 427.372 70.6597 427.819 69.6851C428.266 68.7048 428.888 67.9424 429.685 67.3978C430.482 66.8532 431.405 66.5723 432.454 66.5551L432.454 70.1237Z" fill="url(#paint3_linear_2030_964)"/>
<defs>
<linearGradient id="paint0_linear_2030_964" x1="-72.0002" y1="673.5" x2="930" y2="166" gradientUnits="userSpaceOnUse">
<stop stop-color="#FF414D"/>
<stop offset="0.5" stop-color="#4665FC"/>
<stop offset="1" stop-color="#00B1FF"/>
</linearGradient>
<linearGradient id="paint1_linear_2030_964" x1="691.639" y1="150" x2="76.639" y2="1103" gradientUnits="userSpaceOnUse">
<stop offset="0.4" stop-color="white"/>
<stop offset="1" stop-color="#D5D5D5"/>
</linearGradient>
<linearGradient id="paint2_linear_2030_964" x1="414.5" y1="620" x2="414.5" y2="768" gradientUnits="userSpaceOnUse">
<stop stop-color="#FFB077"/>
<stop offset="1" stop-color="#FFED94"/>
</linearGradient>
<linearGradient id="paint3_linear_2030_964" x1="370" y1="302.5" x2="517.5" y2="12.5" gradientUnits="userSpaceOnUse">
<stop stop-color="#00A3FF"/>
<stop offset="1" stop-color="#5051C1"/>
</linearGradient>
</defs>
</svg>
